<svg xmlns="http://www.w3.org/2000/svg" width="14" height="14" viewBox="0 0 14 14" fill="none" class="injected-svg" data-src="/static/icons/external-arrow.svg" xmlns:xlink="http://www.w3.org/1999/xlink" role="img">
	<path d="M3.75948 9.53317L3.40593 9.88672L4.11304 10.5938L4.46659 10.2403L3.75948 9.53317ZM9.74797 4.95889L10.1015 4.60534L9.39442 3.89823L9.04086 4.25178L9.74797 4.95889ZM4.46659 10.2403L9.74797 4.95889L9.04086 4.25178L3.75948 9.53317L4.46659 10.2403Z" fill="#FCFCFF">
	</path>
	<path d="M4.11279 3.6123H3.61279V4.6123H4.11279V3.6123ZM9.8875 4.1123H10.3875V3.6123H9.8875V4.1123ZM9.3875 9.88701L9.3875 10.387L10.3875 10.387L10.3875 9.88701L9.3875 9.88701ZM4.11279 4.6123L9.8875 4.6123V3.6123L4.11279 3.6123V4.6123ZM9.3875 4.1123L9.3875 9.88701L10.3875 9.88701L10.3875 4.1123H9.3875Z" fill="#FCFCFF">
	</path>
</svg>
