<svg width="18" height="21" viewBox="0 0 18 21" fill="none" xmlns="http://www.w3.org/2000/svg">
<g clip-path="url(#clip0_1563_2468)">
<path d="M11.0838 8.95732C11.2884 9.16187 11.3906 9.41755 11.3906 9.72437C11.3906 10.0312 11.2884 10.2997 11.0838 10.5298C10.9048 10.7343 10.6747 10.8366 10.3934 10.8366C10.2145 10.8366 10.0483 10.7855 9.89493 10.6832C9.74144 10.5809 9.61364 10.453 9.51136 10.2997C9.43462 10.1207 9.39633 9.92891 9.39633 9.72437C9.39633 9.57096 9.42185 9.43031 9.47299 9.30251C9.52413 9.17471 9.58811 9.05959 9.66477 8.95732C9.76705 8.85505 9.88208 8.77838 10.01 8.72725C10.1378 8.67611 10.2656 8.6505 10.3934 8.6505C10.6747 8.6505 10.9048 8.75278 11.0838 8.95732ZM6.09801 8.95732C6.30255 8.75278 6.54545 8.6505 6.8267 8.6505C7.10795 8.6505 7.33807 8.75278 7.51705 8.95732C7.72159 9.16187 7.82386 9.41755 7.82386 9.72437C7.82386 10.0312 7.72159 10.2997 7.51705 10.5298C7.33807 10.7343 7.10795 10.8366 6.8267 10.8366C6.54545 10.8366 6.30255 10.7343 6.09801 10.5298C5.91904 10.2997 5.82955 10.0312 5.82955 9.72437C5.82955 9.41755 5.91904 9.16187 6.09801 8.95732ZM17.1818 2.43746V20.0411C15.6989 18.7371 14.1775 17.3565 12.6179 15.8991L13.1548 17.74H1.99432C1.45739 17.74 0.984371 17.5482 0.575284 17.1647C0.191761 16.7557 0 16.2698 0 15.7073V2.43746C0 1.87496 0.191761 1.40194 0.575284 1.01842C0.984371 0.609331 1.45739 0.404785 1.99432 0.404785H15.1875C15.7245 0.404785 16.1846 0.609331 16.5682 1.01842C16.9773 1.40194 17.1818 1.87496 17.1818 2.43746ZM14.3821 11.7187C14.3821 10.7982 14.267 9.86501 14.0369 8.91895C13.8068 7.9474 13.5639 7.2187 13.3082 6.73291L12.9631 6.00422C12.7073 5.79967 12.4261 5.63347 12.1193 5.50564C11.8381 5.35223 11.5823 5.24996 11.3523 5.19882C11.1477 5.12211 10.9559 5.07097 10.777 5.04541C10.598 4.99428 10.4573 4.9687 10.3551 4.9687H10.2017L10.0866 5.12211C10.5725 5.27552 11.0199 5.46729 11.429 5.6974C11.8381 5.90194 12.1193 6.06814 12.2727 6.19597L12.5028 6.38774C11.3778 5.74854 10.1505 5.41615 8.82098 5.39058C7.49148 5.36501 6.27699 5.59513 5.17755 6.08092L4.60227 6.38774C5.1392 5.87638 5.99573 5.44172 7.17187 5.08376L7.09517 4.9687C6.20028 4.9687 5.27983 5.31388 4.33381 6.00422C4.23154 6.20876 4.10369 6.47723 3.95028 6.80961C3.79687 7.142 3.57955 7.81956 3.2983 8.84229C3.04261 9.8394 2.91477 10.7982 2.91477 11.7187C2.96591 11.8466 3.0554 11.9871 3.18323 12.1406C3.33664 12.2939 3.66904 12.5113 4.1804 12.7925C4.69177 13.0738 5.26705 13.2144 5.90625 13.2144C6.16193 12.9332 6.37927 12.6647 6.55823 12.4091C6.20028 12.3068 5.8679 12.1661 5.56108 11.9871C5.27983 11.7826 5.08807 11.6036 4.9858 11.4502L4.83239 11.2585C4.88352 11.2841 4.93466 11.3224 4.9858 11.3735C5.0625 11.3991 5.12642 11.4247 5.17755 11.4502C5.22869 11.4758 5.25427 11.4886 5.25427 11.4886C6.12358 11.9744 7.08239 12.2684 8.13068 12.3707C9.20455 12.4474 10.2912 12.2684 11.3906 11.8338C11.7741 11.7059 12.1449 11.5141 12.5028 11.2585C12.1705 11.7954 11.5823 12.1917 10.7386 12.4474L11.3906 13.2144C11.7997 13.2144 12.1705 13.1633 12.5028 13.0611C12.8608 12.9332 13.142 12.8053 13.3466 12.6775C13.5767 12.5241 13.7684 12.3835 13.9219 12.2557C14.1009 12.1022 14.2159 11.9744 14.267 11.8721L14.3821 11.7187Z" fill="white"/>
</g>
<defs>
<clipPath id="clip0_1563_2468">
<rect width="18" height="20" fill="white" transform="translate(0 0.404785)"/>
</clipPath>
</defs>
</svg>
