<svg width="20" height="20" viewBox="0 0 20 20" fill="none" xmlns="http://www.w3.org/2000/svg">
<g clip-path="url(#clip0_1563_7004)">
<path d="M9.81818 0.930176C4.39364 0.930176 0 5.25018 0 10.5782C0 14.8417 2.81291 18.4573 6.71318 19.732C7.20409 19.8228 7.38409 19.5242 7.38409 19.2681C7.38409 19.039 7.37591 18.4319 7.37182 17.6276C4.64073 18.2094 4.06473 16.3333 4.06473 16.3333C3.618 15.2197 2.97245 14.9219 2.97245 14.9219C2.08309 14.3238 3.04118 14.3361 3.04118 14.3361C4.02709 14.4032 4.545 15.3302 4.545 15.3302C5.42045 16.8054 6.84327 16.3791 7.40455 16.1328C7.49291 15.5085 7.74573 15.0839 8.02636 14.8425C5.84591 14.6012 3.55418 13.7715 3.55418 10.075C3.55418 9.02199 3.93464 8.16127 4.56464 7.48627C4.45418 7.24245 4.12282 6.26145 4.65055 4.93272C4.65055 4.93272 5.47282 4.67418 7.35055 5.9219C8.136 5.70754 8.97055 5.60118 9.80509 5.59627C10.6396 5.60118 11.4742 5.70754 12.2596 5.9219C14.1251 4.67418 14.9474 4.93272 14.9474 4.93272C15.4751 6.26145 15.1437 7.24245 15.0455 7.48627C15.6715 8.16127 16.0519 9.02199 16.0519 10.075C16.0519 13.7814 13.7569 14.5971 11.5724 14.8344C11.916 15.124 12.2351 15.7155 12.2351 16.6196C12.2351 17.9107 12.2228 18.9482 12.2228 19.2615C12.2228 19.5144 12.3946 19.8163 12.8978 19.7197C16.8259 18.4532 19.6364 14.8352 19.6364 10.5782C19.6364 5.25018 15.2403 0.930176 9.81818 0.930176Z" fill="white"/>
</g>
<defs>
<clipPath id="clip0_1563_7004">
<rect width="20" height="19" fill="white" transform="translate(0 0.904785)"/>
</clipPath>
</defs>
</svg>
