<svg width="32" height="32" viewBox="0 0 32 32" fill="none" xmlns="http://www.w3.org/2000/svg">
<path d="M16 31.4881C24.8366 31.4881 32 24.4392 32 15.744C32 7.04884 24.8366 0 16 0C7.16344 0 0 7.04884 0 15.744C0 24.4392 7.16344 31.4881 16 31.4881Z" fill="url(#paint0_linear_4143_226498)"/>
<path d="M19.4748 17.1989L28.6965 15.6794L19.4748 14.16L24.9214 6.56559L17.327 12.0122L15.8076 2.79053L14.2881 12.0122L6.6937 6.56559L12.1403 14.16L2.91864 15.6794L12.1403 17.1989L6.6937 24.7933L14.2881 19.3467L15.8076 28.5684L17.327 19.3467L24.9214 24.7933L19.4748 17.1989Z" fill="white"/>
<defs>
<linearGradient id="paint0_linear_4143_226498" x1="15.9995" y1="0.126993" x2="15.9995" y2="31.3633" gradientUnits="userSpaceOnUse">
<stop offset="0.1028" stop-color="#00FFAA"/>
<stop offset="0.999" stop-color="#5F00FA"/>
</linearGradient>
</defs>
</svg>
