<svg width="48" height="48" viewBox="0 0 48 48" fill="none" xmlns="http://www.w3.org/2000/svg">
<g clip-path="url(#clip0_2226_107211)">
<g clip-path="url(#clip1_2226_107211)">
<path d="M24 48.0012C37.2548 48.0012 48 37.2561 48 24.0012C48 10.7464 37.2548 0.0012207 24 0.0012207C10.7452 0.0012207 0 10.7464 0 24.0012C0 37.2561 10.7452 48.0012 24 48.0012Z" fill="#EBE8F6"/>
</g>
<path d="M23.8251 8L23.6104 8.72931V29.8903L23.8251 30.1045L33.6476 24.2984L23.8251 8Z" fill="#3C3C3B"/>
<path d="M23.8228 8L14 24.2984L23.8228 30.1045V19.8336V8Z" fill="#8C8C8C"/>
<path d="M23.8251 31.9611L23.7041 32.1087V39.6466L23.8251 39.9998L33.6536 26.158L23.8251 31.9611Z" fill="#3C3C3B"/>
<path d="M23.8228 39.9998V31.9611L14 26.158L23.8228 39.9998Z" fill="#8C8C8C"/>
<path d="M23.8271 30.1081L33.6497 24.302L23.8271 19.8372V30.1081Z" fill="#141414"/>
<path d="M14 24.302L23.8228 30.1081V19.8372L14 24.302Z" fill="#3C3C3B"/>
</g>
<defs>
<clipPath id="clip0_2226_107211">
<rect width="48" height="48" fill="white" transform="matrix(1 0 0 -1 0 48)"/>
</clipPath>
<clipPath id="clip1_2226_107211">
<rect width="48" height="48" fill="white"/>
</clipPath>
</defs>
</svg>
