<svg width="48" height="48" viewBox="0 0 48 48" fill="none" xmlns="http://www.w3.org/2000/svg">
<path d="M24 0C37.259 0 48 10.7462 48 24C48 37.2538 37.2538 48 24 48C10.7462 48 0 37.2538 0 24C0 10.7462 10.7462 0 24 0Z" fill="#50AF95"/>
<path fill-rule="evenodd" clip-rule="evenodd" d="M26.9708 26.7876C26.8011 26.8003 25.9244 26.8527 23.9686 26.8527C22.4131 26.8527 21.3086 26.806 20.9212 26.7876C14.9097 26.5232 10.4226 25.4767 10.4226 24.2238C10.4226 22.9709 14.9097 21.9258 20.9212 21.6571V25.7454C21.3143 25.7737 22.4399 25.8401 23.9955 25.8401C25.8622 25.8401 26.7969 25.7624 26.9652 25.7468V21.66C32.9639 21.9272 37.4411 22.9737 37.4411 24.2238C37.4411 25.4739 32.9654 26.5203 26.9652 26.7862L26.9708 26.7876ZM26.9708 21.2371V17.5788H35.3425V12H12.5495V17.5788H20.9197V21.2357C14.1163 21.5482 9 22.8959 9 24.5109C9 26.1258 14.1163 27.4721 20.9197 27.786V39.5092H26.9694V27.7818C33.7573 27.4692 38.8651 26.123 38.8651 24.5094C38.8651 22.8959 33.7615 21.5497 26.9694 21.2357L26.9708 21.2371Z" fill="#EBE8F6"/>
</svg>
