<svg width="374" height="396" viewBox="0 0 374 396" fill="none" xmlns="http://www.w3.org/2000/svg">
<g clip-path="url(#clip0_1717_138101)">
<rect width="373.78" height="394.62" transform="translate(0 0.608398)" fill="black"/>
<rect x="-8.40625" y="-92.5168" width="396.668" height="388.073" fill="url(#paint0_linear_1717_138101)"/>
<path d="M156.964 296.658C117.74 301.565 79.663 300.283 65.5273 299.028V327.776H462.43V304.221C459.759 304.848 448.568 305.726 425.178 304.221C395.941 302.34 388.867 293.836 345.971 291.954C303.074 290.073 279.519 271.221 248.401 271.221C217.282 271.221 205.994 290.524 156.964 296.658Z" fill="#222222"/>
<path d="M156.964 296.658C117.74 301.565 79.663 300.283 65.5273 299.028V327.776H462.43V304.221C459.759 304.848 448.568 305.726 425.178 304.221C395.941 302.34 388.867 293.836 345.971 291.954C303.074 290.073 279.519 271.221 248.401 271.221C217.282 271.221 205.994 290.524 156.964 296.658Z" fill="url(#paint1_linear_1717_138101)"/>
<path d="M57.4823 291.197C25.4042 295.051 -5.73636 294.044 -17.2969 293.059V483.155H379.371V315.635C363.308 314.306 295.963 298.319 276.835 297.137C252.924 295.659 247.138 288.981 212.057 287.504C176.975 286.026 157.711 271.221 132.261 271.221C106.812 271.221 97.5799 286.381 57.4823 291.197Z" fill="black"/>
<path d="M57.4784 291.197C25.4003 295.051 -5.74027 294.044 -17.3008 293.059V483.155H379.367V315.635C363.304 314.306 295.959 298.319 276.831 297.137C252.92 295.659 247.134 288.981 212.053 287.504C176.971 286.026 157.707 271.221 132.258 271.221C106.808 271.221 97.576 286.381 57.4784 291.197Z" fill="url(#paint2_linear_1717_138101)"/>
<path d="M348.546 368.668C368.741 371.094 388.347 370.461 395.625 369.84V489.518H145.891V384.054C156.004 383.216 198.403 373.152 210.446 372.408C225.5 371.478 229.142 367.273 251.229 366.343C273.315 365.413 285.444 356.092 301.466 356.092C317.489 356.092 323.301 365.636 348.546 368.668Z" fill="url(#paint3_linear_1717_138101)"/>
<rect x="8.55859" y="357.62" width="18.4921" height="3.5347" fill="#222222"/>
<rect x="8.55859" y="357.62" width="18.4921" height="3.5347" fill="url(#paint4_linear_1717_138101)"/>
<path d="M5.7642 378.424C-20.8867 381.757 -46.7587 380.887 -56.3633 380.034V399.567H213.316V383.563C211.501 383.989 203.897 384.585 188.005 383.563C168.139 382.284 163.333 376.506 134.187 375.228C105.04 373.949 89.0355 361.14 67.8917 361.14C46.7479 361.14 39.0778 374.256 5.7642 378.424Z" fill="#222222"/>
<path d="M5.7642 378.424C-20.8867 381.758 -46.7587 380.887 -56.3633 380.034V399.567H213.316V383.563C211.501 383.989 203.897 384.585 188.005 383.563C168.139 382.284 163.333 376.506 134.187 375.228C105.04 373.949 89.0355 361.14 67.8917 361.14C46.7479 361.14 39.0778 374.256 5.7642 378.424Z" fill="url(#paint5_linear_1717_138101)"/>
<path fill-rule="evenodd" clip-rule="evenodd" d="M136.319 330.983H139.649H228.403H231.734L341.006 400.15H228.403H139.649H27.0469L136.319 330.983Z" fill="#222222"/>
<path fill-rule="evenodd" clip-rule="evenodd" d="M136.319 330.983H139.649H228.403H231.734L341.006 400.15H228.403H139.649H27.0469L136.319 330.983Z" fill="url(#paint6_linear_1717_138101)"/>
<g filter="url(#filter0_f_1717_138101)">
<circle cx="89.2813" cy="131.677" r="19.6641" fill="white"/>
</g>
<circle cx="89.2813" cy="131.677" r="19.6641" fill="white"/>
<rect x="232.516" y="134.306" width="16.9774" height="224.96" fill="#222222"/>
<rect x="232.516" y="134.306" width="16.9774" height="224.96" fill="url(#paint7_linear_1717_138101)"/>
<rect x="231.391" y="160.999" width="19.2204" height="3.67393" fill="#222222"/>
<rect x="231.391" y="160.999" width="19.2204" height="3.67393" fill="url(#paint8_linear_1717_138101)"/>
<rect x="231.391" y="133" width="19.2204" height="3.67393" fill="url(#paint9_linear_1717_138101)"/>
<rect x="245.812" y="164.707" width="30.2422" height="13.3422" transform="rotate(90 245.812 164.707)" fill="white"/>
<rect x="245.812" y="164.707" width="30.2422" height="13.3422" transform="rotate(90 245.812 164.707)" fill="url(#paint10_linear_1717_138101)"/>
<rect x="245.812" y="164.707" width="30.2422" height="13.3422" transform="rotate(90 245.812 164.707)" fill="url(#paint11_linear_1717_138101)"/>
<rect x="231.391" y="194.913" width="19.2204" height="3.67393" fill="#222222"/>
<rect x="231.391" y="194.913" width="19.2204" height="3.67393" fill="url(#paint12_linear_1717_138101)"/>
<g opacity="0.5">
<g filter="url(#filter1_f_1717_138101)">
<path d="M124.922 351.159C125.938 361.052 152.454 366.432 184.147 363.178C215.839 359.924 240.71 349.268 239.694 339.375L102.334 120.54L70.6152 133.504L124.924 351.159L124.922 351.159Z" fill="url(#paint13_linear_1717_138101)"/>
</g>
<path opacity="0.8" d="M124.944 351.159C125.96 361.052 152.476 366.432 184.169 363.177C215.861 359.923 240.732 349.267 239.716 339.374L102.354 120.54L70.6347 133.504L124.944 351.159Z" fill="white"/>
<g filter="url(#filter2_f_1717_138101)">
<path d="M124.922 351.159C125.938 361.052 152.454 366.432 184.147 363.178C215.839 359.924 240.71 349.268 239.694 339.375L102.334 120.54L70.6152 133.504L124.924 351.159L124.922 351.159Z" fill="url(#paint14_linear_1717_138101)"/>
</g>
<path opacity="0.8" d="M124.944 351.159C125.96 361.052 152.476 366.432 184.169 363.177C215.861 359.923 240.732 349.267 239.716 339.374L102.354 120.54L70.6347 133.504L124.944 351.159Z" fill="white"/>
<g filter="url(#filter3_f_1717_138101)">
<path d="M124.922 351.159C125.938 361.052 152.454 366.432 184.147 363.178C215.839 359.924 240.71 349.268 239.694 339.375L102.334 120.54L70.6152 133.504L124.924 351.159L124.922 351.159Z" fill="url(#paint15_linear_1717_138101)"/>
</g>
<g filter="url(#filter4_f_1717_138101)">
<path d="M124.944 351.159C125.96 361.052 152.476 366.432 184.169 363.177C215.861 359.923 240.732 349.267 239.716 339.374L102.354 120.54L70.6347 133.504L124.944 351.159Z" fill="white"/>
</g>
<g filter="url(#filter5_d_1717_138101)">
<path d="M90.3262 149.711C100.219 148.695 107.416 139.851 106.4 129.958C105.384 120.064 96.5409 112.868 86.6477 113.884C76.7544 114.899 69.5578 123.743 70.5737 133.636C71.5895 143.53 80.433 150.727 90.3262 149.711Z" fill="white"/>
</g>
</g>
<rect x="137.391" y="140" width="95" height="46" fill="#1D1D1D"/>
<path d="M161.67 160H160.237L155.929 151.705L155.907 160H154.481V148.899H155.914L160.222 157.179L160.245 148.899H161.67V160ZM163.698 155.799C163.698 155.204 163.785 154.653 163.958 154.145C164.13 153.631 164.379 153.187 164.705 152.811C165.025 152.434 165.416 152.14 165.879 151.926C166.341 151.708 166.862 151.598 167.442 151.598C168.026 151.598 168.55 151.708 169.012 151.926C169.48 152.14 169.876 152.434 170.202 152.811C170.522 153.187 170.768 153.631 170.941 154.145C171.114 154.653 171.2 155.204 171.2 155.799V155.967C171.2 156.562 171.114 157.113 170.941 157.621C170.768 158.13 170.522 158.572 170.202 158.948C169.876 159.324 169.482 159.619 169.02 159.832C168.557 160.046 168.036 160.152 167.457 160.152C166.873 160.152 166.346 160.046 165.879 159.832C165.416 159.619 165.025 159.324 164.705 158.948C164.379 158.572 164.13 158.13 163.958 157.621C163.785 157.113 163.698 156.562 163.698 155.967V155.799ZM165.109 155.967C165.109 156.373 165.157 156.762 165.254 157.133C165.35 157.499 165.498 157.822 165.696 158.102C165.889 158.381 166.133 158.602 166.428 158.765C166.723 158.928 167.066 159.009 167.457 159.009C167.843 159.009 168.181 158.928 168.471 158.765C168.766 158.602 169.012 158.381 169.211 158.102C169.404 157.822 169.549 157.499 169.645 157.133C169.742 156.762 169.79 156.373 169.79 155.967V155.799C169.79 155.398 169.739 155.014 169.638 154.648C169.541 154.277 169.396 153.952 169.203 153.672C169.005 153.392 168.758 153.171 168.463 153.009C168.174 152.841 167.833 152.757 167.442 152.757C167.05 152.757 166.71 152.841 166.42 153.009C166.13 153.171 165.889 153.392 165.696 153.672C165.498 153.952 165.35 154.277 165.254 154.648C165.157 155.014 165.109 155.398 165.109 155.799V155.967ZM190.032 158.544C189.859 158.747 189.676 158.933 189.483 159.1C189.29 159.263 189.089 159.405 188.881 159.527C188.525 159.741 188.141 159.898 187.729 160C187.318 160.107 186.886 160.158 186.433 160.152C185.976 160.147 185.554 160.079 185.168 159.947C184.787 159.809 184.443 159.621 184.138 159.382C183.834 159.149 183.567 158.872 183.338 158.551C183.109 158.231 182.919 157.883 182.766 157.507C182.609 157.136 182.489 156.747 182.408 156.34C182.332 155.929 182.291 155.515 182.286 155.098V153.809C182.291 153.398 182.326 152.988 182.393 152.582C182.464 152.17 182.57 151.776 182.713 151.4C182.855 151.024 183.033 150.676 183.246 150.356C183.46 150.03 183.717 149.748 184.016 149.509C184.311 149.275 184.647 149.09 185.023 148.953C185.399 148.816 185.821 148.747 186.288 148.747C186.807 148.747 187.285 148.828 187.722 148.991C188.159 149.148 188.54 149.375 188.865 149.669C189.191 149.969 189.452 150.33 189.651 150.752C189.849 151.169 189.971 151.636 190.017 152.155H188.621C188.566 151.835 188.479 151.54 188.362 151.27C188.245 150.996 188.093 150.762 187.905 150.569C187.712 150.376 187.483 150.226 187.219 150.119C186.954 150.007 186.647 149.951 186.296 149.951C185.961 149.951 185.663 150.01 185.404 150.127C185.145 150.239 184.919 150.391 184.726 150.584C184.532 150.777 184.372 151.004 184.245 151.263C184.118 151.517 184.014 151.786 183.933 152.071C183.851 152.356 183.793 152.645 183.757 152.94C183.722 153.235 183.704 153.52 183.704 153.794V155.098C183.709 155.377 183.732 155.667 183.773 155.967C183.818 156.262 183.887 156.551 183.978 156.836C184.07 157.121 184.187 157.39 184.329 157.644C184.471 157.898 184.644 158.122 184.848 158.315C185.046 158.508 185.277 158.663 185.541 158.78C185.806 158.892 186.105 158.95 186.441 158.956C186.634 158.961 186.835 158.953 187.043 158.933C187.257 158.912 187.463 158.872 187.661 158.811C187.859 158.75 188.045 158.668 188.217 158.567C188.39 158.46 188.535 158.323 188.652 158.155L188.667 155.662H186.41V154.473H190.009L190.032 158.544ZM197.648 160C197.592 159.893 197.547 159.761 197.511 159.604C197.481 159.441 197.458 159.273 197.442 159.1C197.3 159.243 197.14 159.377 196.962 159.504C196.789 159.632 196.599 159.743 196.39 159.84C196.177 159.936 195.951 160.013 195.712 160.069C195.473 160.125 195.219 160.152 194.949 160.152C194.512 160.152 194.116 160.089 193.76 159.962C193.409 159.835 193.112 159.662 192.868 159.443C192.619 159.23 192.426 158.976 192.289 158.681C192.156 158.381 192.09 158.058 192.09 157.713C192.09 157.26 192.179 156.864 192.357 156.523C192.54 156.183 192.797 155.898 193.127 155.67C193.458 155.446 193.854 155.278 194.317 155.166C194.784 155.055 195.305 154.999 195.88 154.999H197.42V154.351C197.42 154.102 197.374 153.878 197.282 153.68C197.191 153.481 197.061 153.311 196.894 153.169C196.726 153.032 196.52 152.925 196.276 152.849C196.037 152.772 195.768 152.734 195.468 152.734C195.188 152.734 194.937 152.77 194.713 152.841C194.494 152.912 194.309 153.006 194.156 153.123C194.004 153.24 193.885 153.38 193.798 153.542C193.717 153.7 193.676 153.865 193.676 154.038H192.258C192.263 153.738 192.339 153.443 192.487 153.154C192.639 152.864 192.858 152.602 193.142 152.368C193.422 152.14 193.763 151.954 194.164 151.812C194.571 151.669 195.031 151.598 195.544 151.598C196.012 151.598 196.446 151.657 196.848 151.774C197.249 151.885 197.597 152.056 197.892 152.284C198.182 152.518 198.411 152.808 198.578 153.154C198.746 153.499 198.83 153.903 198.83 154.366V158.201C198.83 158.475 198.855 158.767 198.906 159.077C198.957 159.382 199.028 159.649 199.12 159.878V160H197.648ZM195.155 158.925C195.43 158.925 195.686 158.889 195.925 158.818C196.164 158.747 196.383 158.653 196.581 158.536C196.774 158.419 196.942 158.287 197.084 158.14C197.226 157.987 197.338 157.83 197.42 157.667V155.997H196.108C195.62 155.997 195.193 156.041 194.827 156.127C194.467 156.208 194.179 156.335 193.966 156.508C193.813 156.63 193.697 156.775 193.615 156.943C193.539 157.11 193.501 157.301 193.501 157.515C193.501 157.718 193.534 157.906 193.6 158.079C193.671 158.252 193.775 158.399 193.913 158.521C194.05 158.648 194.223 158.747 194.431 158.818C194.639 158.889 194.881 158.925 195.155 158.925ZM201.826 151.751H206.042V158.78H208.734V160H201.826V158.78H204.632V152.978H201.826V151.751ZM204.449 149.586C204.449 149.464 204.467 149.349 204.502 149.242C204.543 149.136 204.604 149.044 204.685 148.968C204.751 148.902 204.835 148.851 204.937 148.816C205.044 148.775 205.163 148.755 205.295 148.755C205.427 148.755 205.544 148.775 205.646 148.816C205.748 148.851 205.831 148.902 205.898 148.968C205.979 149.039 206.04 149.128 206.081 149.235C206.121 149.342 206.142 149.458 206.142 149.586C206.142 149.814 206.07 150.005 205.928 150.157C205.786 150.31 205.575 150.386 205.295 150.386C205.011 150.386 204.797 150.31 204.655 150.157C204.518 150.005 204.449 149.814 204.449 149.586ZM210.983 160V151.751H212.248L212.347 152.971C212.469 152.798 212.602 152.64 212.744 152.498C212.891 152.351 213.046 152.223 213.209 152.117C213.453 151.954 213.717 151.83 214.002 151.743C214.292 151.652 214.597 151.603 214.917 151.598C215.349 151.598 215.74 151.659 216.091 151.781C216.447 151.903 216.749 152.094 216.998 152.353C217.247 152.612 217.438 152.943 217.57 153.344C217.707 153.741 217.776 154.213 217.776 154.762V160H216.365V154.793C216.365 154.427 216.325 154.117 216.243 153.863C216.162 153.608 216.043 153.403 215.885 153.245C215.722 153.088 215.524 152.973 215.29 152.902C215.062 152.831 214.797 152.795 214.497 152.795C214.238 152.795 213.997 152.833 213.773 152.91C213.55 152.981 213.344 153.08 213.156 153.207C213.003 153.319 212.861 153.448 212.729 153.596C212.602 153.743 212.49 153.906 212.393 154.084V160H210.983Z" fill="white"/>
<path d="M161.67 176H160.237L155.929 167.705L155.907 176H154.481V164.899H155.914L160.222 173.179L160.245 164.899H161.67V176ZM163.698 171.799C163.698 171.204 163.785 170.653 163.958 170.145C164.13 169.631 164.379 169.187 164.705 168.811C165.025 168.434 165.416 168.14 165.879 167.926C166.341 167.708 166.862 167.598 167.442 167.598C168.026 167.598 168.55 167.708 169.012 167.926C169.48 168.14 169.876 168.434 170.202 168.811C170.522 169.187 170.768 169.631 170.941 170.145C171.114 170.653 171.2 171.204 171.2 171.799V171.967C171.2 172.562 171.114 173.113 170.941 173.621C170.768 174.13 170.522 174.572 170.202 174.948C169.876 175.324 169.482 175.619 169.02 175.832C168.557 176.046 168.036 176.152 167.457 176.152C166.873 176.152 166.346 176.046 165.879 175.832C165.416 175.619 165.025 175.324 164.705 174.948C164.379 174.572 164.13 174.13 163.958 173.621C163.785 173.113 163.698 172.562 163.698 171.967V171.799ZM165.109 171.967C165.109 172.373 165.157 172.762 165.254 173.133C165.35 173.499 165.498 173.822 165.696 174.102C165.889 174.381 166.133 174.602 166.428 174.765C166.723 174.928 167.066 175.009 167.457 175.009C167.843 175.009 168.181 174.928 168.471 174.765C168.766 174.602 169.012 174.381 169.211 174.102C169.404 173.822 169.549 173.499 169.645 173.133C169.742 172.762 169.79 172.373 169.79 171.967V171.799C169.79 171.398 169.739 171.014 169.638 170.648C169.541 170.277 169.396 169.952 169.203 169.672C169.005 169.392 168.758 169.171 168.463 169.009C168.174 168.841 167.833 168.757 167.442 168.757C167.05 168.757 166.71 168.841 166.42 169.009C166.13 169.171 165.889 169.392 165.696 169.672C165.498 169.952 165.35 170.277 165.254 170.648C165.157 171.014 165.109 171.398 165.109 171.799V171.967ZM184.39 171.548V176H182.98V164.899H186.578C187.076 164.91 187.546 164.988 187.989 165.136C188.436 165.283 188.827 165.497 189.163 165.776C189.498 166.056 189.762 166.401 189.956 166.813C190.154 167.225 190.253 167.697 190.253 168.231C190.253 168.765 190.154 169.237 189.956 169.649C189.762 170.056 189.498 170.399 189.163 170.678C188.827 170.958 188.436 171.171 187.989 171.319C187.546 171.466 187.076 171.542 186.578 171.548H184.39ZM184.39 170.389H186.578C186.903 170.384 187.203 170.333 187.478 170.236C187.752 170.135 187.991 169.992 188.194 169.809C188.398 169.626 188.555 169.405 188.667 169.146C188.784 168.882 188.843 168.582 188.843 168.246C188.843 167.911 188.784 167.608 188.667 167.339C188.555 167.07 188.4 166.841 188.202 166.653C187.999 166.465 187.757 166.32 187.478 166.218C187.203 166.117 186.903 166.063 186.578 166.058H184.39V170.389ZM197.648 176C197.592 175.893 197.547 175.761 197.511 175.604C197.481 175.441 197.458 175.273 197.442 175.1C197.3 175.243 197.14 175.377 196.962 175.504C196.789 175.632 196.599 175.743 196.39 175.84C196.177 175.936 195.951 176.013 195.712 176.069C195.473 176.125 195.219 176.152 194.949 176.152C194.512 176.152 194.116 176.089 193.76 175.962C193.409 175.835 193.112 175.662 192.868 175.443C192.619 175.23 192.426 174.976 192.289 174.681C192.156 174.381 192.09 174.058 192.09 173.713C192.09 173.26 192.179 172.864 192.357 172.523C192.54 172.183 192.797 171.898 193.127 171.67C193.458 171.446 193.854 171.278 194.317 171.166C194.784 171.055 195.305 170.999 195.88 170.999H197.42V170.351C197.42 170.102 197.374 169.878 197.282 169.68C197.191 169.481 197.061 169.311 196.894 169.169C196.726 169.032 196.52 168.925 196.276 168.849C196.037 168.772 195.768 168.734 195.468 168.734C195.188 168.734 194.937 168.77 194.713 168.841C194.494 168.912 194.309 169.006 194.156 169.123C194.004 169.24 193.885 169.38 193.798 169.542C193.717 169.7 193.676 169.865 193.676 170.038H192.258C192.263 169.738 192.339 169.443 192.487 169.154C192.639 168.864 192.858 168.602 193.142 168.368C193.422 168.14 193.763 167.954 194.164 167.812C194.571 167.669 195.031 167.598 195.544 167.598C196.012 167.598 196.446 167.657 196.848 167.774C197.249 167.885 197.597 168.056 197.892 168.284C198.182 168.518 198.411 168.808 198.578 169.154C198.746 169.499 198.83 169.903 198.83 170.366V174.201C198.83 174.475 198.855 174.767 198.906 175.077C198.957 175.382 199.028 175.649 199.12 175.878V176H197.648ZM195.155 174.925C195.43 174.925 195.686 174.889 195.925 174.818C196.164 174.747 196.383 174.653 196.581 174.536C196.774 174.419 196.942 174.287 197.084 174.14C197.226 173.987 197.338 173.83 197.42 173.667V171.997H196.108C195.62 171.997 195.193 172.041 194.827 172.127C194.467 172.208 194.179 172.335 193.966 172.508C193.813 172.63 193.697 172.775 193.615 172.943C193.539 173.11 193.501 173.301 193.501 173.515C193.501 173.718 193.534 173.906 193.6 174.079C193.671 174.252 193.775 174.399 193.913 174.521C194.05 174.648 194.223 174.747 194.431 174.818C194.639 174.889 194.881 174.925 195.155 174.925ZM202.268 179.332C202.136 179.332 201.981 179.316 201.803 179.286C201.626 179.255 201.491 179.23 201.399 179.21L201.628 178.058C201.755 178.069 201.88 178.076 202.002 178.081C202.129 178.092 202.228 178.097 202.299 178.097C202.492 178.097 202.667 178.043 202.825 177.937C202.988 177.83 203.133 177.703 203.26 177.555C203.382 177.408 203.486 177.255 203.572 177.098C203.664 176.94 203.735 176.811 203.786 176.709L204.35 175.611L200.797 167.751H202.375L204.64 173.072L205.006 174.071L205.394 173.103L207.521 167.751H209.1L204.914 177.273C204.817 177.487 204.693 177.713 204.54 177.952C204.393 178.191 204.213 178.412 203.999 178.615C203.786 178.818 203.537 178.989 203.252 179.126C202.967 179.263 202.64 179.332 202.268 179.332Z" fill="white"/>
</g>
<defs>
<filter id="filter0_f_1717_138101" x="33.4743" y="75.87" width="111.614" height="111.614" filterUnits="userSpaceOnUse" color-interpolation-filters="sRGB">
<feFlood flood-opacity="0" result="BackgroundImageFix"/>
<feBlend mode="normal" in="SourceGraphic" in2="BackgroundImageFix" result="shape"/>
<feGaussianBlur stdDeviation="18.0715" result="effect1_foregroundBlur_1717_138101"/>
</filter>
<filter id="filter1_f_1717_138101" x="52.0096" y="101.936" width="206.317" height="280.795" filterUnits="userSpaceOnUse" color-interpolation-filters="sRGB">
<feFlood flood-opacity="0" result="BackgroundImageFix"/>
<feBlend mode="normal" in="SourceGraphic" in2="BackgroundImageFix" result="shape"/>
<feGaussianBlur stdDeviation="9.30185" result="effect1_foregroundBlur_1717_138101"/>
</filter>
<filter id="filter2_f_1717_138101" x="52.0096" y="101.936" width="206.317" height="280.795" filterUnits="userSpaceOnUse" color-interpolation-filters="sRGB">
<feFlood flood-opacity="0" result="BackgroundImageFix"/>
<feBlend mode="normal" in="SourceGraphic" in2="BackgroundImageFix" result="shape"/>
<feGaussianBlur stdDeviation="9.30185" result="effect1_foregroundBlur_1717_138101"/>
</filter>
<filter id="filter3_f_1717_138101" x="52.0096" y="101.936" width="206.317" height="280.795" filterUnits="userSpaceOnUse" color-interpolation-filters="sRGB">
<feFlood flood-opacity="0" result="BackgroundImageFix"/>
<feBlend mode="normal" in="SourceGraphic" in2="BackgroundImageFix" result="shape"/>
<feGaussianBlur stdDeviation="9.30185" result="effect1_foregroundBlur_1717_138101"/>
</filter>
<filter id="filter4_f_1717_138101" x="33.8726" y="83.7799" width="242.634" height="317.107" filterUnits="userSpaceOnUse" color-interpolation-filters="sRGB">
<feFlood flood-opacity="0" result="BackgroundImageFix"/>
<feBlend mode="normal" in="SourceGraphic" in2="BackgroundImageFix" result="shape"/>
<feGaussianBlur stdDeviation="18.3801" result="effect1_foregroundBlur_1717_138101"/>
</filter>
<filter id="filter5_d_1717_138101" x="67.5" y="110.811" width="41.9727" height="41.9715" filterUnits="userSpaceOnUse" color-interpolation-filters="sRGB">
<feFlood flood-opacity="0" result="BackgroundImageFix"/>
<feColorMatrix in="SourceAlpha" type="matrix" values="0 0 0 0 0 0 0 0 0 0 0 0 0 0 0 0 0 0 127 0" result="hardAlpha"/>
<feOffset/>
<feGaussianBlur stdDeviation="1.4883"/>
<feColorMatrix type="matrix" values="0 0 0 0 1 0 0 0 0 1 0 0 0 0 1 0 0 0 0.75 0"/>
<feBlend mode="normal" in2="BackgroundImageFix" result="effect1_dropShadow_1717_138101"/>
<feBlend mode="normal" in="SourceGraphic" in2="effect1_dropShadow_1717_138101" result="shape"/>
</filter>
<linearGradient id="paint0_linear_1717_138101" x1="189.928" y1="25.1888" x2="163.046" y2="450.276" gradientUnits="userSpaceOnUse">
<stop/>
<stop offset="1" stop-color="white"/>
</linearGradient>
<linearGradient id="paint1_linear_1717_138101" x1="191.431" y1="193.858" x2="257.996" y2="324.315" gradientUnits="userSpaceOnUse">
<stop offset="0.186853" stop-color="white"/>
<stop offset="1" stop-opacity="0"/>
</linearGradient>
<linearGradient id="paint2_linear_1717_138101" x1="153.153" y1="203.552" x2="128.525" y2="368.518" gradientUnits="userSpaceOnUse">
<stop stop-color="white"/>
<stop offset="1" stop-opacity="0"/>
</linearGradient>
<linearGradient id="paint3_linear_1717_138101" x1="288.311" y1="313.49" x2="303.816" y2="417.347" gradientUnits="userSpaceOnUse">
<stop stop-color="white"/>
<stop offset="1" stop-opacity="0"/>
</linearGradient>
<linearGradient id="paint4_linear_1717_138101" x1="17.8046" y1="361.155" x2="-40.7536" y2="361.155" gradientUnits="userSpaceOnUse">
<stop stop-color="#0D0D0D"/>
<stop offset="1" stop-color="white" stop-opacity="0"/>
</linearGradient>
<linearGradient id="paint5_linear_1717_138101" x1="29.1834" y1="308.575" x2="74.4112" y2="397.215" gradientUnits="userSpaceOnUse">
<stop offset="0.186853" stop-color="white"/>
<stop offset="1" stop-opacity="0"/>
</linearGradient>
<linearGradient id="paint6_linear_1717_138101" x1="184.026" y1="330.983" x2="184.026" y2="400.15" gradientUnits="userSpaceOnUse">
<stop stop-color="white"/>
<stop offset="0.770833" stop-color="#222222" stop-opacity="0"/>
</linearGradient>
<linearGradient id="paint7_linear_1717_138101" x1="241.004" y1="359.266" x2="187.243" y2="359.266" gradientUnits="userSpaceOnUse">
<stop stop-color="#222222"/>
<stop offset="1" stop-color="white" stop-opacity="0"/>
</linearGradient>
<linearGradient id="paint8_linear_1717_138101" x1="241.001" y1="164.672" x2="180.136" y2="164.672" gradientUnits="userSpaceOnUse">
<stop stop-color="#0D0D0D"/>
<stop offset="1" stop-color="white" stop-opacity="0"/>
</linearGradient>
<linearGradient id="paint9_linear_1717_138101" x1="241.001" y1="136.674" x2="180.136" y2="136.674" gradientUnits="userSpaceOnUse">
<stop stop-color="#0D0D0D"/>
<stop offset="1" stop-color="white" stop-opacity="0"/>
</linearGradient>
<linearGradient id="paint10_linear_1717_138101" x1="260.934" y1="160.759" x2="258.875" y2="234.66" gradientUnits="userSpaceOnUse">
<stop/>
<stop offset="0.371036" stop-color="#FF6E40"/>
<stop offset="0.536062"/>
</linearGradient>
<linearGradient id="paint11_linear_1717_138101" x1="244.941" y1="174.01" x2="261.262" y2="218.096" gradientUnits="userSpaceOnUse">
<stop stop-opacity="0"/>
<stop offset="0.371036" stop-color="white" stop-opacity="0.3"/>
<stop offset="1" stop-opacity="0"/>
</linearGradient>
<linearGradient id="paint12_linear_1717_138101" x1="241.001" y1="198.587" x2="180.136" y2="198.587" gradientUnits="userSpaceOnUse">
<stop stop-color="#0D0D0D"/>
<stop offset="1" stop-color="white" stop-opacity="0"/>
</linearGradient>
<linearGradient id="paint13_linear_1717_138101" x1="53.4302" y1="49.5448" x2="218.196" y2="428.04" gradientUnits="userSpaceOnUse">
<stop offset="0.32" stop-color="white"/>
<stop offset="0.71" stop-color="white"/>
</linearGradient>
<linearGradient id="paint14_linear_1717_138101" x1="53.4302" y1="49.5448" x2="218.196" y2="428.04" gradientUnits="userSpaceOnUse">
<stop offset="0.32" stop-color="white"/>
<stop offset="0.71" stop-color="white"/>
</linearGradient>
<linearGradient id="paint15_linear_1717_138101" x1="53.4302" y1="49.5448" x2="218.196" y2="428.04" gradientUnits="userSpaceOnUse">
<stop offset="0.32" stop-color="white"/>
<stop offset="0.71" stop-color="white"/>
</linearGradient>
<clipPath id="clip0_1717_138101">
<rect width="373.78" height="394.62" fill="white" transform="translate(0 0.608398)"/>
</clipPath>
</defs>
</svg>
