<svg width="390" height="735" viewBox="0 0 390 735" fill="none" xmlns="http://www.w3.org/2000/svg">
<g clip-path="url(#clip0_1529_90060)">
<g filter="url(#filter0_f_1529_90060)">
<circle cx="160.226" cy="742.989" r="256.011" fill="white"/>
</g>
<circle cx="160.226" cy="742.989" r="256.011" fill="white"/>
<rect width="12.7461" height="168.893" transform="matrix(-1 0 0 1 337.492 308.977)" fill="#222222"/>
<rect width="12.7461" height="168.893" transform="matrix(-1 0 0 1 337.492 308.977)" fill="url(#paint0_linear_1529_90060)"/>
<rect width="14.4301" height="2.75826" transform="matrix(-1 0 0 1 338.33 329.015)" fill="#222222"/>
<rect width="14.4301" height="2.75826" transform="matrix(-1 0 0 1 338.33 329.015)" fill="url(#paint1_linear_1529_90060)"/>
<rect width="14.4301" height="2.75826" transform="matrix(-1 0 0 1 338.33 308)" fill="url(#paint2_linear_1529_90060)"/>
<rect width="22.7049" height="10.0169" transform="matrix(4.37114e-08 1 1 -4.37114e-08 327.5 331.804)" fill="white"/>
<rect width="22.7049" height="10.0169" transform="matrix(4.37114e-08 1 1 -4.37114e-08 327.5 331.804)" fill="url(#paint3_linear_1529_90060)"/>
<rect width="22.7049" height="10.0169" transform="matrix(4.37114e-08 1 1 -4.37114e-08 327.5 331.804)" fill="url(#paint4_linear_1529_90060)"/>
<rect width="14.4301" height="2.75826" transform="matrix(-1 0 0 1 338.33 354.48)" fill="#222222"/>
<rect width="14.4301" height="2.75826" transform="matrix(-1 0 0 1 338.33 354.48)" fill="url(#paint5_linear_1529_90060)"/>
<rect x="217.592" y="372.906" width="232.082" height="200.613" fill="black"/>
<rect x="217.592" y="372.906" width="232.082" height="200.613" fill="url(#paint6_linear_1529_90060)"/>
<rect width="40.9731" height="188.538" transform="matrix(4.37114e-08 1 1 -4.37114e-08 261.023 377.945)" fill="white"/>
<rect width="40.9731" height="188.538" transform="matrix(4.37114e-08 1 1 -4.37114e-08 261.023 377.945)" fill="url(#paint7_linear_1529_90060)"/>
<rect width="40.9731" height="188.538" transform="matrix(4.37114e-08 1 1 -4.37114e-08 261.023 377.945)" fill="url(#paint8_linear_1529_90060)"/>
<path d="M222.666 379.195C222.666 379.105 222.645 379.029 222.603 378.967C222.563 378.906 222.511 378.853 222.446 378.81C222.381 378.768 222.31 378.733 222.232 378.705C222.155 378.677 222.081 378.651 222.01 378.628C221.907 378.595 221.801 378.554 221.693 378.507C221.587 378.459 221.49 378.401 221.403 378.334C221.314 378.265 221.241 378.185 221.185 378.092C221.13 377.998 221.102 377.887 221.102 377.761C221.102 377.634 221.13 377.521 221.185 377.422C221.241 377.322 221.315 377.238 221.405 377.17C221.495 377.101 221.597 377.049 221.712 377.014C221.826 376.978 221.941 376.96 222.057 376.96C222.184 376.96 222.307 376.981 222.426 377.024C222.544 377.066 222.649 377.125 222.741 377.202C222.832 377.279 222.905 377.371 222.96 377.48C223.016 377.589 223.045 377.711 223.047 377.846H222.664C222.653 377.761 222.632 377.684 222.601 377.616C222.57 377.546 222.529 377.486 222.478 377.436C222.427 377.386 222.366 377.348 222.295 377.321C222.225 377.293 222.145 377.279 222.057 377.279C221.985 377.279 221.915 377.289 221.847 377.309C221.779 377.329 221.72 377.359 221.667 377.4C221.613 377.44 221.57 377.49 221.538 377.549C221.507 377.608 221.492 377.677 221.492 377.755C221.493 377.84 221.514 377.912 221.556 377.971C221.598 378.029 221.651 378.078 221.716 378.118C221.779 378.158 221.847 378.192 221.921 378.219C221.997 378.246 222.067 378.269 222.133 378.289C222.242 378.323 222.351 378.364 222.46 378.413C222.569 378.46 222.669 378.52 222.759 378.594C222.847 378.663 222.919 378.747 222.973 378.846C223.028 378.946 223.055 379.061 223.055 379.191C223.055 379.323 223.026 379.438 222.967 379.536C222.909 379.635 222.833 379.716 222.741 379.781C222.648 379.846 222.543 379.896 222.426 379.93C222.309 379.962 222.192 379.978 222.075 379.978C221.935 379.978 221.797 379.955 221.661 379.908C221.527 379.861 221.41 379.793 221.31 379.704C221.221 379.627 221.151 379.538 221.098 379.436C221.047 379.332 221.019 379.217 221.015 379.091H221.397C221.409 379.182 221.434 379.263 221.471 379.335C221.509 379.405 221.558 379.464 221.617 379.512C221.676 379.562 221.744 379.6 221.82 379.625C221.898 379.649 221.983 379.662 222.075 379.662C222.147 379.662 222.219 379.653 222.289 379.635C222.36 379.616 222.423 379.588 222.478 379.549C222.533 379.511 222.578 379.463 222.613 379.405C222.648 379.346 222.666 379.276 222.666 379.195ZM224.494 377.226V377.755H225.325V378.043H224.494V379.23C224.494 379.314 224.505 379.384 224.526 379.44C224.548 379.495 224.577 379.538 224.615 379.571C224.653 379.604 224.696 379.628 224.744 379.641C224.794 379.655 224.846 379.662 224.901 379.662C224.942 379.662 224.983 379.659 225.027 379.655C225.07 379.65 225.112 379.644 225.154 379.637C225.194 379.631 225.232 379.624 225.267 379.617C225.303 379.609 225.333 379.602 225.355 379.597L225.408 379.861C225.377 379.88 225.339 379.897 225.295 379.912C225.25 379.925 225.202 379.937 225.15 379.946C225.097 379.957 225.041 379.965 224.982 379.97C224.924 379.976 224.866 379.978 224.809 379.978C224.712 379.978 224.621 379.965 224.536 379.938C224.453 379.91 224.38 379.865 224.318 379.805C224.256 379.746 224.207 379.669 224.171 379.575C224.136 379.479 224.119 379.364 224.119 379.23V378.043H223.546V377.755H224.119V377.226H224.494ZM227.056 379.978C226.903 379.978 226.762 379.952 226.633 379.9C226.505 379.847 226.395 379.774 226.304 379.68C226.212 379.586 226.141 379.474 226.09 379.345C226.039 379.216 226.013 379.075 226.013 378.923V378.838C226.013 378.662 226.041 378.505 226.098 378.366C226.154 378.226 226.23 378.108 226.324 378.011C226.417 377.916 226.522 377.842 226.641 377.791C226.76 377.74 226.883 377.714 227.008 377.714C227.165 377.714 227.302 377.742 227.419 377.797C227.538 377.851 227.636 377.926 227.714 378.021C227.792 378.118 227.85 378.232 227.888 378.362C227.927 378.493 227.946 378.634 227.946 378.786V378.953H226.386V378.967C226.396 379.074 226.417 379.167 226.449 379.248C226.483 379.329 226.528 379.4 226.586 379.462C226.645 379.528 226.717 379.579 226.8 379.617C226.883 379.655 226.976 379.674 227.076 379.674C227.21 379.674 227.328 379.647 227.432 379.593C227.535 379.539 227.621 379.468 227.69 379.379L227.918 379.557C227.845 379.667 227.736 379.765 227.591 379.851C227.447 379.936 227.269 379.978 227.056 379.978ZM227.008 378.021C226.933 378.021 226.861 378.035 226.794 378.064C226.727 378.09 226.666 378.13 226.612 378.183C226.559 378.236 226.513 378.302 226.475 378.38C226.439 378.457 226.413 378.546 226.399 378.647H227.573V378.628C227.573 378.561 227.56 378.489 227.534 378.413C227.509 378.335 227.473 378.267 227.428 378.211C227.382 378.154 227.324 378.109 227.254 378.074C227.185 378.039 227.103 378.021 227.008 378.021ZM228.632 376.839H229.748V379.615H230.46V379.938H228.632V379.615H229.375V377.164H228.632V376.839ZM231.114 376.839H232.23V379.615H232.942V379.938H231.114V379.615H231.856V377.164H231.114V376.839ZM234.972 379.938C234.957 379.91 234.945 379.875 234.935 379.833C234.927 379.79 234.921 379.746 234.917 379.7C234.879 379.738 234.837 379.773 234.79 379.807C234.744 379.84 234.694 379.87 234.639 379.896C234.582 379.921 234.522 379.941 234.459 379.956C234.396 379.971 234.329 379.978 234.257 379.978C234.142 379.978 234.037 379.961 233.943 379.928C233.85 379.894 233.771 379.848 233.707 379.791C233.641 379.734 233.589 379.667 233.553 379.589C233.518 379.51 233.501 379.424 233.501 379.333C233.501 379.213 233.524 379.108 233.571 379.018C233.62 378.928 233.688 378.852 233.775 378.792C233.863 378.733 233.967 378.688 234.09 378.659C234.214 378.629 234.351 378.614 234.503 378.614H234.911V378.443C234.911 378.377 234.899 378.318 234.875 378.265C234.851 378.213 234.816 378.168 234.772 378.13C234.727 378.094 234.673 378.066 234.608 378.045C234.545 378.025 234.474 378.015 234.395 378.015C234.321 378.015 234.254 378.025 234.195 378.043C234.137 378.062 234.088 378.087 234.048 378.118C234.007 378.149 233.976 378.186 233.953 378.229C233.931 378.271 233.92 378.314 233.92 378.36H233.545C233.546 378.281 233.567 378.203 233.606 378.126C233.646 378.049 233.704 377.98 233.779 377.918C233.853 377.858 233.943 377.809 234.05 377.771C234.157 377.733 234.279 377.714 234.415 377.714C234.538 377.714 234.653 377.73 234.76 377.761C234.866 377.79 234.958 377.836 235.036 377.896C235.113 377.958 235.173 378.035 235.218 378.126C235.262 378.218 235.284 378.324 235.284 378.447V379.462C235.284 379.534 235.291 379.612 235.305 379.694C235.318 379.774 235.337 379.845 235.361 379.906V379.938H234.972ZM234.312 379.653C234.384 379.653 234.452 379.644 234.516 379.625C234.579 379.606 234.637 379.581 234.689 379.551C234.74 379.52 234.785 379.485 234.822 379.446C234.86 379.405 234.89 379.364 234.911 379.321V378.879H234.564C234.435 378.879 234.322 378.89 234.225 378.913C234.13 378.934 234.054 378.968 233.997 379.014C233.957 379.046 233.926 379.084 233.904 379.129C233.884 379.173 233.874 379.224 233.874 379.28C233.874 379.334 233.883 379.384 233.9 379.429C233.919 379.475 233.947 379.514 233.983 379.547C234.019 379.58 234.065 379.606 234.12 379.625C234.175 379.644 234.239 379.653 234.312 379.653Z" fill="white"/>
<g opacity="0.7">
<rect x="261.086" y="410.097" width="188.174" height="8.82498" fill="black"/>
<rect x="261.086" y="410.097" width="188.174" height="8.82498" fill="url(#paint9_linear_1529_90060)"/>
</g>
<g clip-path="url(#clip1_1529_90060)">
<path d="M455.499 418.761C461.956 418.096 467.51 408.954 467.51 397.774C467.51 386.593 461.956 377.453 455.499 376.786L455.499 376.746L254.503 376.746L254.503 376.786C248.046 377.451 242.492 386.593 242.492 397.774C242.492 408.954 248.046 418.094 254.503 418.761L254.503 418.801L455.499 418.801L455.499 418.761Z" fill="url(#paint10_linear_1529_90060)"/>
<path d="M255.747 376.787C249.366 377.452 243.877 386.594 243.877 397.775C243.877 408.956 249.366 418.095 255.747 418.762L255.747 418.802L454.39 418.802L454.39 418.762C460.772 418.098 466.26 408.956 466.26 397.775C466.26 386.594 460.772 377.455 454.39 376.787L454.39 376.748L255.747 376.748L255.747 376.787Z" fill="url(#paint11_linear_1529_90060)"/>
</g>
<rect x="538.834" y="342.092" width="232.082" height="200.613" transform="rotate(90 538.834 342.092)" fill="black"/>
<rect x="538.834" y="342.092" width="232.082" height="200.613" transform="rotate(90 538.834 342.092)" fill="url(#paint12_linear_1529_90060)"/>
<rect width="9.08546" height="120.388" transform="matrix(-1 0 0 1 52.0176 456.079)" fill="#222222"/>
<rect width="9.08546" height="120.388" transform="matrix(-1 0 0 1 52.0176 456.079)" fill="url(#paint13_linear_1529_90060)"/>
<rect width="10.2858" height="1.9661" transform="matrix(-1 0 0 1 52.6211 470.356)" fill="#222222"/>
<rect width="10.2858" height="1.9661" transform="matrix(-1 0 0 1 52.6211 470.356)" fill="url(#paint14_linear_1529_90060)"/>
<rect width="16.1841" height="7.14005" transform="matrix(4.37114e-08 1 1 -4.37114e-08 44.9023 472.344)" fill="white"/>
<rect width="16.1841" height="7.14005" transform="matrix(4.37114e-08 1 1 -4.37114e-08 44.9023 472.344)" fill="url(#paint15_linear_1529_90060)"/>
<rect width="16.1841" height="7.14005" transform="matrix(4.37114e-08 1 1 -4.37114e-08 44.9023 472.344)" fill="url(#paint16_linear_1529_90060)"/>
<rect width="10.2858" height="1.9661" transform="matrix(-1 0 0 1 52.6211 488.509)" fill="#222222"/>
<rect width="10.2858" height="1.9661" transform="matrix(-1 0 0 1 52.6211 488.509)" fill="url(#paint17_linear_1529_90060)"/>
<rect x="250.266" y="456.079" width="9.08546" height="120.388" fill="#222222"/>
<rect x="250.266" y="456.079" width="9.08546" height="120.388" fill="url(#paint18_linear_1529_90060)"/>
<rect x="458.195" y="441.901" width="18.7297" height="222.915" transform="rotate(90 458.195 441.901)" fill="#222222"/>
<rect x="458.195" y="441.901" width="18.7297" height="222.915" transform="rotate(90 458.195 441.901)" fill="url(#paint19_linear_1529_90060)"/>
<rect x="249.664" y="470.358" width="10.2858" height="1.9661" fill="#222222"/>
<rect x="249.664" y="470.358" width="10.2858" height="1.9661" fill="url(#paint20_linear_1529_90060)"/>
<rect x="269.326" y="441.529" width="19.6817" height="2.64907" transform="rotate(90 269.326 441.529)" fill="#222222"/>
<rect x="269.326" y="441.529" width="19.6817" height="2.64907" transform="rotate(90 269.326 441.529)" fill="url(#paint21_linear_1529_90060)"/>
<rect x="280.65" y="444.075" width="147.623" height="13.6385" fill="white"/>
<rect x="280.65" y="444.075" width="147.623" height="13.6385" fill="url(#paint22_linear_1529_90060)"/>
<rect x="280.65" y="444.075" width="147.623" height="13.6385" fill="url(#paint23_linear_1529_90060)"/>
<rect x="257.385" y="472.345" width="16.1841" height="7.14005" transform="rotate(90 257.385 472.345)" fill="white"/>
<rect x="257.385" y="472.345" width="16.1841" height="7.14005" transform="rotate(90 257.385 472.345)" fill="url(#paint24_linear_1529_90060)"/>
<rect x="257.385" y="472.345" width="16.1841" height="7.14005" transform="rotate(90 257.385 472.345)" fill="url(#paint25_linear_1529_90060)"/>
<rect x="249.664" y="488.51" width="10.2858" height="1.9661" fill="#222222"/>
<rect x="249.664" y="488.51" width="10.2858" height="1.9661" fill="url(#paint26_linear_1529_90060)"/>
<circle cx="265.032" cy="443.84" r="0.403568" fill="black"/>
<circle cx="265.032" cy="448.782" r="0.403568" fill="black"/>
<circle cx="265.032" cy="453.73" r="0.403568" fill="black"/>
<circle cx="265.032" cy="458.675" r="0.403568" fill="black"/>
<rect width="9.08546" height="120.388" transform="matrix(-1 0 0 1 231.455 456.079)" fill="#222222"/>
<rect width="9.08546" height="120.388" transform="matrix(-1 0 0 1 231.455 456.079)" fill="url(#paint27_linear_1529_90060)"/>
<rect width="18.7297" height="222.915" transform="matrix(4.37114e-08 1 1 -4.37114e-08 23.5234 441.901)" fill="#222222"/>
<rect width="18.7297" height="222.915" transform="matrix(4.37114e-08 1 1 -4.37114e-08 23.5234 441.901)" fill="url(#paint28_linear_1529_90060)"/>
<rect width="10.2858" height="1.9661" transform="matrix(-1 0 0 1 232.055 470.358)" fill="#222222"/>
<rect width="10.2858" height="1.9661" transform="matrix(-1 0 0 1 232.055 470.358)" fill="url(#paint29_linear_1529_90060)"/>
<rect width="19.6817" height="2.64907" transform="matrix(4.37114e-08 1 1 -4.37114e-08 41.0957 441.529)" fill="#222222"/>
<rect width="19.6817" height="2.64907" transform="matrix(4.37114e-08 1 1 -4.37114e-08 41.0957 441.529)" fill="url(#paint30_linear_1529_90060)"/>
<rect width="19.6817" height="2.64907" transform="matrix(4.37114e-08 1 1 -4.37114e-08 22.8789 441.529)" fill="#222222"/>
<rect width="19.6817" height="2.64907" transform="matrix(4.37114e-08 1 1 -4.37114e-08 22.8789 441.529)" fill="url(#paint31_linear_1529_90060)"/>
<rect width="19.6817" height="2.64907" transform="matrix(4.37114e-08 1 1 -4.37114e-08 212.393 441.529)" fill="#222222"/>
<rect width="19.6817" height="2.64907" transform="matrix(4.37114e-08 1 1 -4.37114e-08 212.393 441.529)" fill="url(#paint32_linear_1529_90060)"/>
<rect width="147.623" height="13.6385" transform="matrix(-1 0 0 1 201.074 444.075)" fill="white"/>
<rect width="147.623" height="13.6385" transform="matrix(-1 0 0 1 201.074 444.075)" fill="url(#paint33_linear_1529_90060)"/>
<rect width="147.623" height="13.6385" transform="matrix(-1 0 0 1 201.074 444.075)" fill="url(#paint34_linear_1529_90060)"/>
<rect width="16.1841" height="7.14005" transform="matrix(4.37114e-08 1 1 -4.37114e-08 224.332 472.345)" fill="white"/>
<rect width="16.1841" height="7.14005" transform="matrix(4.37114e-08 1 1 -4.37114e-08 224.332 472.345)" fill="url(#paint35_linear_1529_90060)"/>
<rect width="16.1841" height="7.14005" transform="matrix(4.37114e-08 1 1 -4.37114e-08 224.332 472.345)" fill="url(#paint36_linear_1529_90060)"/>
<rect width="10.2858" height="1.9661" transform="matrix(-1 0 0 1 232.055 488.51)" fill="#222222"/>
<rect width="10.2858" height="1.9661" transform="matrix(-1 0 0 1 232.055 488.51)" fill="url(#paint37_linear_1529_90060)"/>
<circle cx="0.403568" cy="0.403568" r="0.403568" transform="matrix(-1 0 0 1 217.09 443.436)" fill="black"/>
<circle cx="0.403568" cy="0.403568" r="0.403568" transform="matrix(-1 0 0 1 217.09 448.379)" fill="black"/>
<circle cx="0.403568" cy="0.403568" r="0.403568" transform="matrix(-1 0 0 1 217.09 453.326)" fill="black"/>
<circle cx="0.403568" cy="0.403568" r="0.403568" transform="matrix(-1 0 0 1 217.09 458.272)" fill="black"/>
<path d="M340.209 571.312C304.187 575.818 269.218 574.641 256.236 573.489V599.891H620.74V578.258C618.287 578.834 608.01 579.64 586.529 578.258C559.679 576.53 553.182 568.721 513.787 566.993C474.393 565.265 452.76 547.952 424.182 547.952C395.603 547.952 385.236 565.68 340.209 571.312Z" fill="#222222"/>
<path d="M340.209 571.312C304.187 575.818 269.218 574.641 256.236 573.489V599.891H620.74V578.258C618.287 578.834 608.01 579.64 586.529 578.258C559.679 576.53 553.182 568.721 513.787 566.993C474.393 565.265 452.76 547.952 424.182 547.952C395.603 547.952 385.236 565.68 340.209 571.312Z" fill="url(#paint38_linear_1529_90060)"/>
<path d="M254.502 566.303C222.638 569.843 194.367 568.93 180.223 569.585V742.663H574.237V588.755C558.281 587.534 491.387 572.846 472.386 571.76C448.635 570.403 442.889 564.267 408.042 562.909C373.195 561.552 354.06 547.95 328.78 547.95C303.501 547.95 294.331 561.878 254.502 566.303Z" fill="black"/>
<path d="M254.46 566.297C222.593 569.836 191.656 570.819 180.172 569.914V742.585H574.236V588.74C558.278 587.519 491.376 572.837 472.372 571.752C448.618 570.395 442.871 564.262 408.02 562.905C373.169 561.548 354.031 547.952 328.748 547.952C303.466 547.952 294.295 561.874 254.46 566.297Z" fill="url(#paint39_linear_1529_90060)"/>
<path d="M45.771 626.277C120.602 634.052 193.247 632.021 220.215 630.033V675.584H-537.001V638.261C-531.904 639.255 -510.554 640.646 -465.931 638.261C-410.152 635.28 -396.656 621.806 -314.818 618.825C-232.98 615.844 -188.041 585.973 -128.673 585.973C-69.3045 585.973 -47.7682 616.559 45.771 626.277Z" fill="#222222"/>
<path d="M45.771 626.277C120.602 634.052 193.247 632.021 220.215 630.033V675.584H-537.001V638.261C-531.904 639.255 -510.554 640.646 -465.931 638.261C-410.152 635.28 -396.656 621.806 -314.818 618.825C-232.98 615.844 -188.041 585.973 -128.673 585.973C-69.3045 585.973 -47.7682 616.559 45.771 626.277Z" fill="url(#paint40_linear_1529_90060)"/>
<path d="M149.015 566.303C180.401 569.843 210.87 570.168 222.182 569.263V742.663H-165.932V588.755C-150.215 587.534 -84.3229 572.846 -65.6068 571.76C-42.2115 570.403 -36.5509 564.267 -2.22585 562.909C32.0992 561.552 50.9478 547.95 75.8486 547.95C100.749 547.95 109.782 561.878 149.015 566.303Z" fill="black"/>
<path d="M149.053 566.298C180.421 569.837 210.871 570.162 222.176 569.257V742.586H-165.704V588.741C-149.996 587.52 -84.1437 572.839 -65.4388 571.753C-42.0577 570.396 -36.4005 564.263 -2.09621 562.906C32.2081 561.549 51.0454 547.953 75.9311 547.953C100.817 547.953 109.844 561.875 149.053 566.298Z" fill="url(#paint41_linear_1529_90060)"/>
<rect x="343.467" y="346.68" width="3.93359" height="3.93359" fill="white"/>
<rect x="220.869" y="384.049" width="3.93359" height="3.93359" fill="white"/>
<rect x="350.021" y="346.68" width="3.93359" height="3.93359" fill="white"/>
<rect x="227.426" y="384.049" width="3.93359" height="3.93359" fill="white"/>
</g>
<defs>
<filter id="filter0_f_1529_90060" x="-128.978" y="453.786" width="578.407" height="578.407" filterUnits="userSpaceOnUse" color-interpolation-filters="sRGB">
<feFlood flood-opacity="0" result="BackgroundImageFix"/>
<feBlend mode="normal" in="SourceGraphic" in2="BackgroundImageFix" result="shape"/>
<feGaussianBlur stdDeviation="16.5963" result="effect1_foregroundBlur_1529_90060"/>
</filter>
<linearGradient id="paint0_linear_1529_90060" x1="6.37304" y1="168.893" x2="-33.9896" y2="168.893" gradientUnits="userSpaceOnUse">
<stop stop-color="#222222"/>
<stop offset="1" stop-color="white" stop-opacity="0"/>
</linearGradient>
<linearGradient id="paint1_linear_1529_90060" x1="7.21504" y1="2.75826" x2="-38.4802" y2="2.75826" gradientUnits="userSpaceOnUse">
<stop stop-color="#0D0D0D"/>
<stop offset="1" stop-color="white" stop-opacity="0"/>
</linearGradient>
<linearGradient id="paint2_linear_1529_90060" x1="7.21504" y1="2.75826" x2="-38.4802" y2="2.75826" gradientUnits="userSpaceOnUse">
<stop stop-color="#0D0D0D"/>
<stop offset="1" stop-color="white" stop-opacity="0"/>
</linearGradient>
<linearGradient id="paint3_linear_1529_90060" x1="11.3524" y1="-2.96402" x2="9.80659" y2="52.5188" gradientUnits="userSpaceOnUse">
<stop/>
<stop offset="0.371036" stop-color="#FF6E40"/>
<stop offset="0.536062"/>
</linearGradient>
<linearGradient id="paint4_linear_1529_90060" x1="-0.654123" y1="6.98444" x2="11.5991" y2="40.0826" gradientUnits="userSpaceOnUse">
<stop stop-opacity="0"/>
<stop offset="0.371036" stop-color="white" stop-opacity="0.3"/>
<stop offset="1" stop-opacity="0"/>
</linearGradient>
<linearGradient id="paint5_linear_1529_90060" x1="7.21504" y1="2.75826" x2="-38.4802" y2="2.75826" gradientUnits="userSpaceOnUse">
<stop stop-color="#0D0D0D"/>
<stop offset="1" stop-color="white" stop-opacity="0"/>
</linearGradient>
<linearGradient id="paint6_linear_1529_90060" x1="333.633" y1="147.236" x2="333.633" y2="573.519" gradientUnits="userSpaceOnUse">
<stop stop-color="white"/>
<stop offset="1" stop-opacity="0"/>
</linearGradient>
<linearGradient id="paint7_linear_1529_90060" x1="20.4865" y1="-55.789" x2="-259.572" y2="907.94" gradientUnits="userSpaceOnUse">
<stop/>
<stop offset="0.371036" stop-color="#FF6E40"/>
<stop offset="0.536062"/>
</linearGradient>
<linearGradient id="paint8_linear_1529_90060" x1="-1.18043" y1="131.462" x2="170.739" y2="175.985" gradientUnits="userSpaceOnUse">
<stop stop-opacity="0"/>
<stop offset="0.371036" stop-color="white" stop-opacity="0.3"/>
<stop offset="1" stop-opacity="0"/>
</linearGradient>
<linearGradient id="paint9_linear_1529_90060" x1="355.173" y1="400.17" x2="355.173" y2="418.922" gradientUnits="userSpaceOnUse">
<stop stop-color="white"/>
<stop offset="1" stop-opacity="0"/>
</linearGradient>
<linearGradient id="paint10_linear_1529_90060" x1="242.492" y1="334.849" x2="242.492" y2="394.077" gradientUnits="userSpaceOnUse">
<stop stop-color="white"/>
<stop offset="1" stop-color="white" stop-opacity="0"/>
</linearGradient>
<linearGradient id="paint11_linear_1529_90060" x1="466.26" y1="460.7" x2="466.26" y2="412.637" gradientUnits="userSpaceOnUse">
<stop stop-color="white"/>
<stop offset="1" stop-color="white" stop-opacity="0"/>
</linearGradient>
<linearGradient id="paint12_linear_1529_90060" x1="398.208" y1="568.273" x2="654.875" y2="525.331" gradientUnits="userSpaceOnUse">
<stop stop-color="white"/>
<stop offset="1" stop-opacity="0"/>
</linearGradient>
<linearGradient id="paint13_linear_1529_90060" x1="4.54273" y1="120.388" x2="-24.2279" y2="120.388" gradientUnits="userSpaceOnUse">
<stop stop-color="#222222"/>
<stop offset="1" stop-color="white" stop-opacity="0"/>
</linearGradient>
<linearGradient id="paint14_linear_1529_90060" x1="5.14291" y1="1.9661" x2="-27.4288" y2="1.9661" gradientUnits="userSpaceOnUse">
<stop stop-color="#0D0D0D"/>
<stop offset="1" stop-color="white" stop-opacity="0"/>
</linearGradient>
<linearGradient id="paint15_linear_1529_90060" x1="8.09206" y1="-2.11276" x2="6.99018" y2="37.4356" gradientUnits="userSpaceOnUse">
<stop/>
<stop offset="0.371036" stop-color="#FF6E40"/>
<stop offset="0.536062"/>
</linearGradient>
<linearGradient id="paint16_linear_1529_90060" x1="-0.466261" y1="4.97854" x2="8.26788" y2="28.571" gradientUnits="userSpaceOnUse">
<stop stop-opacity="0"/>
<stop offset="0.371036" stop-color="white" stop-opacity="0.3"/>
<stop offset="1" stop-opacity="0"/>
</linearGradient>
<linearGradient id="paint17_linear_1529_90060" x1="5.14291" y1="1.9661" x2="-27.4288" y2="1.9661" gradientUnits="userSpaceOnUse">
<stop stop-color="#0D0D0D"/>
<stop offset="1" stop-color="white" stop-opacity="0"/>
</linearGradient>
<linearGradient id="paint18_linear_1529_90060" x1="254.808" y1="576.467" x2="226.038" y2="576.467" gradientUnits="userSpaceOnUse">
<stop stop-color="#222222"/>
<stop offset="1" stop-color="white" stop-opacity="0"/>
</linearGradient>
<linearGradient id="paint19_linear_1529_90060" x1="467.56" y1="664.815" x2="408.249" y2="664.815" gradientUnits="userSpaceOnUse">
<stop stop-color="#222222"/>
<stop offset="1" stop-color="white" stop-opacity="0"/>
</linearGradient>
<linearGradient id="paint20_linear_1529_90060" x1="254.807" y1="472.324" x2="222.235" y2="472.324" gradientUnits="userSpaceOnUse">
<stop stop-color="#0D0D0D"/>
<stop offset="1" stop-color="white" stop-opacity="0"/>
</linearGradient>
<linearGradient id="paint21_linear_1529_90060" x1="279.167" y1="444.178" x2="216.842" y2="444.178" gradientUnits="userSpaceOnUse">
<stop stop-color="#0D0D0D"/>
<stop offset="1" stop-color="white" stop-opacity="0"/>
</linearGradient>
<linearGradient id="paint22_linear_1529_90060" x1="354.462" y1="440.039" x2="354.021" y2="515.638" gradientUnits="userSpaceOnUse">
<stop/>
<stop offset="0.371036" stop-color="#FF6E40"/>
<stop offset="0.536062"/>
</linearGradient>
<linearGradient id="paint23_linear_1529_90060" x1="276.397" y1="453.585" x2="280.346" y2="504.52" gradientUnits="userSpaceOnUse">
<stop stop-opacity="0"/>
<stop offset="0.371036" stop-color="white" stop-opacity="0.3"/>
<stop offset="1" stop-opacity="0"/>
</linearGradient>
<linearGradient id="paint24_linear_1529_90060" x1="265.477" y1="470.232" x2="264.375" y2="509.781" gradientUnits="userSpaceOnUse">
<stop/>
<stop offset="0.371036" stop-color="#FF6E40"/>
<stop offset="0.536062"/>
</linearGradient>
<linearGradient id="paint25_linear_1529_90060" x1="256.919" y1="477.324" x2="265.653" y2="500.916" gradientUnits="userSpaceOnUse">
<stop stop-opacity="0"/>
<stop offset="0.371036" stop-color="white" stop-opacity="0.3"/>
<stop offset="1" stop-opacity="0"/>
</linearGradient>
<linearGradient id="paint26_linear_1529_90060" x1="254.807" y1="490.476" x2="222.235" y2="490.476" gradientUnits="userSpaceOnUse">
<stop stop-color="#0D0D0D"/>
<stop offset="1" stop-color="white" stop-opacity="0"/>
</linearGradient>
<linearGradient id="paint27_linear_1529_90060" x1="4.54273" y1="120.388" x2="-24.2279" y2="120.388" gradientUnits="userSpaceOnUse">
<stop stop-color="#222222"/>
<stop offset="1" stop-color="white" stop-opacity="0"/>
</linearGradient>
<linearGradient id="paint28_linear_1529_90060" x1="9.36485" y1="222.915" x2="-49.9459" y2="222.915" gradientUnits="userSpaceOnUse">
<stop stop-color="#222222"/>
<stop offset="1" stop-color="white" stop-opacity="0"/>
</linearGradient>
<linearGradient id="paint29_linear_1529_90060" x1="5.14291" y1="1.9661" x2="-27.4288" y2="1.9661" gradientUnits="userSpaceOnUse">
<stop stop-color="#0D0D0D"/>
<stop offset="1" stop-color="white" stop-opacity="0"/>
</linearGradient>
<linearGradient id="paint30_linear_1529_90060" x1="9.84086" y1="2.64907" x2="-52.4846" y2="2.64907" gradientUnits="userSpaceOnUse">
<stop stop-color="#0D0D0D"/>
<stop offset="1" stop-color="white" stop-opacity="0"/>
</linearGradient>
<linearGradient id="paint31_linear_1529_90060" x1="9.84086" y1="2.64907" x2="-52.4846" y2="2.64907" gradientUnits="userSpaceOnUse">
<stop stop-color="#0D0D0D"/>
<stop offset="1" stop-color="white" stop-opacity="0"/>
</linearGradient>
<linearGradient id="paint32_linear_1529_90060" x1="9.84086" y1="2.64907" x2="-52.4846" y2="2.64907" gradientUnits="userSpaceOnUse">
<stop stop-color="#0D0D0D"/>
<stop offset="1" stop-color="white" stop-opacity="0"/>
</linearGradient>
<linearGradient id="paint33_linear_1529_90060" x1="73.8116" y1="-4.03568" x2="73.3705" y2="71.5635" gradientUnits="userSpaceOnUse">
<stop/>
<stop offset="0.371036" stop-color="#FF6E40"/>
<stop offset="0.536062"/>
</linearGradient>
<linearGradient id="paint34_linear_1529_90060" x1="-4.253" y1="9.50973" x2="-0.304187" y2="60.445" gradientUnits="userSpaceOnUse">
<stop stop-opacity="0"/>
<stop offset="0.371036" stop-color="white" stop-opacity="0.3"/>
<stop offset="1" stop-opacity="0"/>
</linearGradient>
<linearGradient id="paint35_linear_1529_90060" x1="8.09206" y1="-2.11276" x2="6.99018" y2="37.4356" gradientUnits="userSpaceOnUse">
<stop/>
<stop offset="0.371036" stop-color="#FF6E40"/>
<stop offset="0.536062"/>
</linearGradient>
<linearGradient id="paint36_linear_1529_90060" x1="-0.466261" y1="4.97854" x2="8.26788" y2="28.571" gradientUnits="userSpaceOnUse">
<stop stop-opacity="0"/>
<stop offset="0.371036" stop-color="white" stop-opacity="0.3"/>
<stop offset="1" stop-opacity="0"/>
</linearGradient>
<linearGradient id="paint37_linear_1529_90060" x1="5.14291" y1="1.9661" x2="-27.4288" y2="1.9661" gradientUnits="userSpaceOnUse">
<stop stop-color="#0D0D0D"/>
<stop offset="1" stop-color="white" stop-opacity="0"/>
</linearGradient>
<linearGradient id="paint38_linear_1529_90060" x1="371.863" y1="476.903" x2="432.994" y2="596.711" gradientUnits="userSpaceOnUse">
<stop offset="0.186853" stop-color="white"/>
<stop offset="1" stop-opacity="0"/>
</linearGradient>
<linearGradient id="paint39_linear_1529_90060" x1="349.506" y1="485.806" x2="328.531" y2="637.788" gradientUnits="userSpaceOnUse">
<stop stop-color="white"/>
<stop offset="1" stop-opacity="0"/>
</linearGradient>
<linearGradient id="paint40_linear_1529_90060" x1="-19.9864" y1="463.393" x2="-113.579" y2="684.252" gradientUnits="userSpaceOnUse">
<stop offset="0.186853" stop-color="white"/>
<stop offset="1" stop-opacity="0"/>
</linearGradient>
<linearGradient id="paint41_linear_1529_90060" x1="55.4989" y1="485.807" x2="76.7955" y2="637.698" gradientUnits="userSpaceOnUse">
<stop stop-color="white"/>
<stop offset="1" stop-opacity="0"/>
</linearGradient>
<clipPath id="clip0_1529_90060">
<rect width="390" height="735" fill="white"/>
</clipPath>
<clipPath id="clip1_1529_90060">
<rect width="188.476" height="40.9731" fill="white" transform="matrix(-1 0 0 1 449.559 377.951)"/>
</clipPath>
</defs>
</svg>
