<svg width="140" height="44" viewBox="0 0 140 44" fill="none" xmlns="http://www.w3.org/2000/svg">
<ellipse cx="21.7441" cy="21.7203" rx="18.9083" ry="18.6595" transform="rotate(-180 21.7441 21.7203)" fill="url(#paint0_linear_867_61840)"/>
<ellipse cx="21.8193" cy="21.7023" rx="18.8256" ry="18.6819" transform="rotate(-169.867 21.8193 21.7023)" fill="url(#paint1_radial_867_61840)" fill-opacity="0.8"/>
<path d="M29.1311 27.1598L27.0293 25.0581L21.1134 30.974L23.2152 33.0757L29.1311 27.1598Z" fill="white"/>
<path d="M20.2244 33.0757L22.3262 30.9739L16.4103 25.058L14.3085 27.1598L20.2244 33.0757Z" fill="white"/>
<path d="M16.3045 29.1516L18.4062 27.0499L16.3045 24.9481L14.2027 27.0499L16.3045 29.1516Z" fill="white"/>
<path d="M21.7225 34.5687L23.8242 32.467L21.7225 30.3652L19.6207 32.467L21.7225 34.5687Z" fill="white"/>
<path d="M27.0975 29.1946L29.1992 27.0928L27.0975 24.9911L24.9957 27.0928L27.0975 29.1946Z" fill="white"/>
<path d="M25.0896 27.1875L27.1914 25.0858L22.7181 20.6125L20.6164 22.7142L25.0896 27.1875Z" fill="white"/>
<path d="M14.2713 16.2539L16.373 18.3557L22.2889 12.4398L20.1872 10.338L14.2713 16.2539Z" fill="white"/>
<path d="M23.174 10.3381L21.0723 12.4399L26.9882 18.3558L29.0899 16.254L23.174 10.3381Z" fill="white"/>
<path d="M27.0959 14.261L24.9941 16.3628L27.0959 18.4645L29.1977 16.3628L27.0959 14.261Z" fill="white"/>
<path d="M21.6799 8.84386L19.5781 10.9456L21.6799 13.0474L23.7816 10.9456L21.6799 8.84386Z" fill="white"/>
<path d="M16.3029 14.218L14.2012 16.3198L16.3029 18.4215L18.4047 16.3198L16.3029 14.218Z" fill="white"/>
<path d="M18.3107 16.2257L16.209 18.3274L20.6823 22.8007L22.784 20.6989L18.3107 16.2257Z" fill="white"/>
<path d="M17.5684 21.6212C19.6251 22.3742 21.1843 23.9068 21.7217 25.7745C22.2558 23.9101 23.8149 22.3775 25.875 21.6212C23.8182 20.8681 22.2591 19.3355 21.7217 17.4678C21.1876 19.3322 19.6284 20.8648 17.5684 21.6212Z" fill="white"/>
<path opacity="0.4" d="M14.2732 16.2533L16.375 18.3551L22.2909 12.4392L20.1891 10.3375L14.2732 16.2533Z" fill="url(#paint2_linear_867_61840)"/>
<path opacity="0.4" d="M23.176 10.3387L21.0742 12.4405L26.9901 18.3563L29.0919 16.2546L23.176 10.3387Z" fill="url(#paint3_linear_867_61840)"/>
<path d="M27.1037 14.2598L25.002 16.3616L27.1037 18.4633L29.2055 16.3616L27.1037 14.2598Z" fill="white"/>
<path d="M21.6857 8.84267L19.584 10.9444L21.6857 13.0462L23.7875 10.9444L21.6857 8.84267Z" fill="white"/>
<path opacity="0.4" d="M18.3186 16.2245L16.2168 18.3263L20.6901 22.7995L22.7918 20.6978L18.3186 16.2245Z" fill="url(#paint4_linear_867_61840)"/>
<path d="M16.3088 14.2192L14.207 16.321L16.3088 18.4227L18.4105 16.321L16.3088 14.2192Z" fill="white"/>
<path opacity="0.4" d="M29.135 27.161L27.0332 25.0593L21.1173 30.9752L23.2191 33.0769L29.135 27.161Z" fill="url(#paint5_linear_867_61840)"/>
<path opacity="0.4" d="M20.2322 33.0745L22.334 30.9727L16.4181 25.0568L14.3163 27.1586L20.2322 33.0745Z" fill="url(#paint6_linear_867_61840)"/>
<path d="M16.3084 29.1504L18.4102 27.0487L16.3084 24.9469L14.2066 27.0487L16.3084 29.1504Z" fill="white"/>
<path d="M21.7244 34.5705L23.8262 32.4688L21.7244 30.367L19.6227 32.4688L21.7244 34.5705Z" fill="white"/>
<path opacity="0.4" d="M25.0916 27.1887L27.1934 25.0869L22.7201 20.6137L20.6183 22.7154L25.0916 27.1887Z" fill="url(#paint7_linear_867_61840)"/>
<path d="M17.5723 21.6212C19.629 22.3742 21.1882 23.9068 21.7256 25.7745C22.2597 23.9101 23.8188 22.3775 25.8789 21.6212C23.8221 20.8681 22.263 19.3355 21.7256 17.4678C21.1915 19.3322 19.6323 20.8648 17.5723 21.6212Z" fill="white"/>
<path d="M27.1014 29.1963L29.2031 27.0946L27.1014 24.9928L24.9996 27.0946L27.1014 29.1963Z" fill="white"/>
<path d="M21.6955 8.84209L19.5938 10.9438L21.6955 13.0456L23.7973 10.9438L21.6955 8.84209Z" fill="white"/>
<path d="M65.5134 25.15C65.5134 25.6253 65.4104 26.0373 65.2044 26.3859C64.9985 26.7265 64.7331 27.0078 64.4083 27.2296C64.0835 27.4593 63.7111 27.6297 63.2912 27.7406C62.8793 27.8436 62.4594 27.8951 62.0316 27.8951C61.4929 27.8951 60.9938 27.8238 60.5343 27.6812C60.0827 27.5306 59.6827 27.3088 59.3341 27.0157C58.9855 26.7305 58.7003 26.3819 58.4785 25.97C58.2567 25.5501 58.1101 25.0708 58.0388 24.5321H55.7929C55.8166 25.2768 55.979 25.9541 56.2801 26.5641C56.589 27.1662 57.005 27.693 57.5278 28.1446C58.1141 28.6675 58.8033 29.0675 59.5955 29.3448C60.3957 29.6221 61.2077 29.7607 62.0316 29.7607C62.7208 29.7607 63.4101 29.6657 64.0993 29.4755C64.7885 29.2775 65.4065 28.9844 65.9531 28.5962C66.4997 28.2159 66.9434 27.7366 67.284 27.1583C67.6326 26.58 67.8069 25.9026 67.8069 25.1262C67.8069 24.3578 67.6445 23.6804 67.3197 23.0942C67.0028 22.5079 66.5829 22.0128 66.06 21.6088C65.5293 21.1731 64.943 20.8166 64.3013 20.5393C63.6596 20.2541 63.0179 20.0125 62.3762 19.8144C61.988 19.6956 61.5721 19.5569 61.1285 19.3985C60.6927 19.24 60.2887 19.042 59.9164 18.8043C59.5361 18.5666 59.2232 18.2775 58.9776 17.9368C58.732 17.5883 58.6052 17.1644 58.5973 16.6653C58.5973 16.2058 58.6884 15.8018 58.8706 15.4532C59.0608 15.1046 59.3143 14.8115 59.6312 14.5738C59.9401 14.3362 60.2927 14.1579 60.6888 14.0391C61.0928 13.9203 61.5048 13.8609 61.9247 13.8609C62.4475 13.8609 62.9149 13.944 63.3269 14.1104C63.7468 14.2688 64.1072 14.4946 64.4083 14.7877C64.7093 15.0809 64.9509 15.4334 65.1331 15.8454C65.3154 16.2494 65.4382 16.701 65.5015 17.2001H67.7594C67.7435 16.4078 67.5732 15.6909 67.2484 15.0492C66.9236 14.4075 66.4918 13.8609 65.9531 13.4093C65.4144 12.9577 64.7965 12.6091 64.0993 12.3636C63.4021 12.11 62.6773 11.9833 61.9247 11.9833C61.2433 11.9833 60.566 12.0902 59.8926 12.3041C59.2192 12.5101 58.6171 12.8151 58.0863 13.2192C57.5556 13.6232 57.1238 14.1183 56.7911 14.7046C56.4662 15.2908 56.3038 15.9563 56.3038 16.701C56.3038 17.4457 56.4662 18.0953 56.7911 18.6498C57.1238 19.1965 57.5516 19.6718 58.0745 20.0758C58.5894 20.4719 59.1598 20.8126 59.7857 21.0978C60.4194 21.3751 61.0413 21.6127 61.6513 21.8108C62.0712 21.9455 62.5069 22.096 62.9585 22.2624C63.418 22.4287 63.8379 22.6347 64.2181 22.8803C64.5984 23.1338 64.9074 23.4428 65.145 23.8072C65.3906 24.1716 65.5134 24.6192 65.5134 25.15ZM75.72 13.5519H73.5097V16.6653H70.1348V18.3646H73.5097V25.352C73.5097 26.1442 73.6126 26.8216 73.8186 27.3841C74.0325 27.9386 74.3217 28.3902 74.6861 28.7388C75.0505 29.0953 75.4783 29.3567 75.9695 29.5231C76.4686 29.6815 77.0034 29.7607 77.5738 29.7607C77.9144 29.7607 78.2551 29.7449 78.5957 29.7132C78.9443 29.6815 79.2731 29.634 79.582 29.5706C79.891 29.5151 80.1762 29.4478 80.4376 29.3686C80.6991 29.2814 80.9209 29.1824 81.1031 29.0715L80.7941 27.5148C80.6595 27.5465 80.4852 27.5861 80.2713 27.6336C80.0653 27.6732 79.8435 27.7128 79.6058 27.7525C79.3602 27.7921 79.1107 27.8277 78.8572 27.8594C78.6036 27.8832 78.3581 27.8951 78.1204 27.8951C77.7956 27.8951 77.4866 27.8554 77.1935 27.7762C76.9083 27.697 76.6548 27.5584 76.433 27.3603C76.2111 27.1702 76.0368 26.9127 75.9101 26.5879C75.7833 26.2631 75.72 25.8511 75.72 25.352V18.3646H80.6159V16.6653H75.72V13.5519ZM90.252 29.7607C91.5037 29.7607 92.5534 29.5112 93.4011 29.0121C94.2567 28.5051 94.8984 27.9267 95.3262 27.2771L93.9834 26.2314C93.5794 26.7543 93.0723 27.1741 92.4623 27.491C91.8523 27.8079 91.1552 27.9664 90.3709 27.9664C89.7767 27.9664 89.234 27.8554 88.7428 27.6336C88.2517 27.4118 87.8318 27.1068 87.4832 26.7186C87.1426 26.3542 86.8732 25.9343 86.6751 25.459C86.485 24.9836 86.3622 24.433 86.3068 23.8072V23.724H95.4926V22.7377C95.4926 21.8425 95.3777 21.0107 95.148 20.2422C94.9261 19.4737 94.5855 18.8043 94.126 18.2339C93.6665 17.6714 93.0882 17.2318 92.391 16.9149C91.7018 16.5901 90.8937 16.4276 89.9668 16.4276C89.2301 16.4276 88.5091 16.5782 87.8041 16.8792C87.1069 17.1803 86.485 17.612 85.9384 18.1745C85.3838 18.7449 84.9402 19.4421 84.6074 20.266C84.2747 21.082 84.1083 22.0088 84.1083 23.0467V23.5458C84.1083 24.441 84.2589 25.2688 84.5599 26.0294C84.861 26.7899 85.2808 27.4475 85.8195 28.002C86.3583 28.5566 87.0039 28.9883 87.7565 29.2973C88.5171 29.6063 89.3489 29.7607 90.252 29.7607ZM89.9668 18.2339C90.5293 18.2339 91.0126 18.3369 91.4166 18.5429C91.8285 18.7489 92.1692 19.0182 92.4386 19.3509C92.7079 19.6837 92.9178 20.0798 93.0684 20.5393C93.2189 20.9908 93.2942 21.4147 93.2942 21.8108V21.9177H86.3781C86.4652 21.3236 86.6157 20.8007 86.8296 20.3491C87.0514 19.8897 87.3208 19.5015 87.6377 19.1846C87.9546 18.8756 88.3111 18.6419 88.7072 18.4835C89.1033 18.3171 89.5232 18.2339 89.9668 18.2339ZM98.9731 11.2703V13.1835H103.346V27.6217H98.9731V29.5231H109.739V27.6217H105.545V11.2703H98.9731ZM113.03 11.2703V13.1835H117.403V27.6217H113.03V29.5231H123.796V27.6217H119.601V11.2703H113.03ZM136.641 16.6653H135.31L134.763 18.0794L134.728 18.1745C134.569 17.9606 134.395 17.7665 134.205 17.5922C134.015 17.41 133.813 17.2516 133.599 17.1169C133.242 16.8951 132.85 16.7247 132.422 16.6059C131.994 16.4871 131.523 16.4276 131.008 16.4276C130.224 16.4276 129.531 16.6019 128.929 16.9505C128.334 17.2991 127.835 17.7784 127.431 18.3884C127.027 19.0063 126.722 19.7391 126.516 20.5868C126.31 21.4266 126.207 22.3416 126.207 23.3319V23.5814C126.207 24.4687 126.31 25.2926 126.516 26.0531C126.722 26.8058 127.027 27.4554 127.431 28.002C127.835 28.5566 128.334 28.9923 128.929 29.3092C129.523 29.6181 130.208 29.7726 130.984 29.7726C131.491 29.7726 131.959 29.7172 132.387 29.6063C132.814 29.4953 133.203 29.3329 133.551 29.119C133.765 28.9844 133.967 28.8338 134.157 28.6675C134.347 28.4932 134.522 28.3031 134.68 28.0971C134.751 28.3189 134.835 28.5169 134.93 28.6912C135.033 28.8655 135.147 29.016 135.274 29.1428C135.488 29.3567 135.742 29.5151 136.035 29.6181C136.328 29.7211 136.661 29.7726 137.033 29.7726C137.286 29.7726 137.528 29.7449 137.758 29.6894C137.996 29.6419 138.237 29.535 138.483 29.3686L138.209 27.7287C138.13 27.7445 138.035 27.7604 137.924 27.7762C137.821 27.7921 137.71 27.8 137.591 27.8C137.449 27.8 137.318 27.7762 137.199 27.7287C137.088 27.6732 136.993 27.5861 136.914 27.4673C136.827 27.3484 136.76 27.19 136.712 26.9919C136.665 26.7859 136.641 26.5324 136.641 26.2314V16.6653ZM128.406 23.5814V23.3319C128.406 22.6585 128.461 22.0168 128.572 21.4068C128.683 20.7888 128.865 20.2422 129.119 19.7669C129.364 19.2995 129.685 18.9271 130.081 18.6498C130.485 18.3726 130.972 18.2339 131.543 18.2339C131.884 18.2339 132.196 18.2775 132.482 18.3646C132.775 18.4439 133.044 18.5587 133.29 18.7092C133.527 18.8598 133.741 19.038 133.931 19.244C134.122 19.45 134.292 19.6758 134.442 19.9213V25.6253C134.442 25.7759 134.442 25.8907 134.442 25.97C134.442 26.0413 134.442 26.1284 134.442 26.2314C134.331 26.4215 134.209 26.5998 134.074 26.7661C133.947 26.9325 133.805 27.083 133.646 27.2177C133.377 27.4554 133.064 27.6415 132.707 27.7762C132.359 27.9109 131.963 27.9782 131.519 27.9782C130.957 27.9782 130.477 27.8594 130.081 27.6217C129.685 27.3841 129.364 27.0632 129.119 26.6592C128.865 26.2631 128.683 25.7996 128.572 25.2688C128.461 24.7381 128.406 24.1756 128.406 23.5814Z" fill="white"/>
<defs>
<linearGradient id="paint0_linear_867_61840" x1="55.9522" y1="17.7013" x2="-5.51818" y2="27.7135" gradientUnits="userSpaceOnUse">
<stop offset="0.322917" stop-color="#EC9066"/>
<stop offset="0.708333" stop-color="#8F1A00"/>
</linearGradient>
<radialGradient id="paint1_radial_867_61840" cx="0" cy="0" r="1" gradientUnits="userSpaceOnUse" gradientTransform="translate(27.1364 18.2534) rotate(164.249) scale(34.9393 41.8952)">
<stop offset="0.333333" stop-color="white" stop-opacity="0"/>
<stop offset="0.708333" stop-color="white"/>
</radialGradient>
<linearGradient id="paint2_linear_867_61840" x1="16.5204" y1="16.3039" x2="24.8536" y2="7.04518" gradientUnits="userSpaceOnUse">
<stop offset="0.06" stop-color="#111111"/>
<stop offset="0.43" stop-color="#7A7A7A" stop-opacity="0.82"/>
<stop offset="0.8" stop-color="#DAD9D9" stop-opacity="0.66"/>
<stop offset="0.98" stop-color="white" stop-opacity="0.6"/>
</linearGradient>
<linearGradient id="paint3_linear_867_61840" x1="21.6067" y1="10.6169" x2="33.6088" y2="23.4914" gradientUnits="userSpaceOnUse">
<stop offset="0.06" stop-color="#111111"/>
<stop offset="0.43" stop-color="#7A7A7A" stop-opacity="0.82"/>
<stop offset="0.8" stop-color="#DAD9D9" stop-opacity="0.66"/>
<stop offset="0.98" stop-color="white" stop-opacity="0.6"/>
</linearGradient>
<linearGradient id="paint4_linear_867_61840" x1="22.3437" y1="22.4336" x2="14.7271" y2="14.608" gradientUnits="userSpaceOnUse">
<stop offset="0.06" stop-color="#111111"/>
<stop offset="0.43" stop-color="#7A7A7A" stop-opacity="0.82"/>
<stop offset="0.8" stop-color="#DAD9D9" stop-opacity="0.66"/>
<stop offset="0.98" stop-color="white" stop-opacity="0.6"/>
</linearGradient>
<linearGradient id="paint5_linear_867_61840" x1="21.9061" y1="32.0822" x2="29.954" y2="24.5419" gradientUnits="userSpaceOnUse">
<stop offset="0.06" stop-color="#111111"/>
<stop offset="0.43" stop-color="#7A7A7A" stop-opacity="0.82"/>
<stop offset="0.8" stop-color="#DAD9D9" stop-opacity="0.66"/>
<stop offset="0.98" stop-color="white" stop-opacity="0.6"/>
</linearGradient>
<linearGradient id="paint6_linear_867_61840" x1="16.862" y1="27.5696" x2="24.754" y2="35.6539" gradientUnits="userSpaceOnUse">
<stop offset="0.06" stop-color="#111111"/>
<stop offset="0.43" stop-color="#9E9D9E" stop-opacity="0.82"/>
<stop offset="0.93" stop-color="#111111"/>
</linearGradient>
<linearGradient id="paint7_linear_867_61840" x1="21.1969" y1="21.1724" x2="29.2845" y2="29.3165" gradientUnits="userSpaceOnUse">
<stop offset="0.06" stop-color="#111111"/>
<stop offset="0.43" stop-color="#7A7A7A" stop-opacity="0.82"/>
<stop offset="0.8" stop-color="#DAD9D9" stop-opacity="0.66"/>
<stop offset="0.98" stop-color="white" stop-opacity="0.6"/>
</linearGradient>
</defs>
</svg>
