<svg width="20" height="21" viewBox="0 0 20 21" fill="none" xmlns="http://www.w3.org/2000/svg">
<path d="M10.0048 0.404795C15.5392 0.412648 20.0146 4.89644 20.0001 10.4187C19.9851 15.9461 15.5113 20.4122 9.99612 20.4048C4.46132 20.3969 -0.0121474 15.9147 2.47812e-05 10.3901C0.0121969 4.86464 4.48841 0.396943 10.0048 0.404795ZM10.997 10.4132C11.0076 7.95774 9.04002 5.96948 6.59184 5.96163C4.15505 5.95378 2.16863 7.94204 2.16235 10.3956C2.15568 12.8459 4.12874 14.8369 6.57417 14.8479C9.01253 14.8589 10.9864 12.8801 10.997 10.4132ZM11.4403 10.6209C11.4332 11.056 11.5125 11.7018 11.6865 12.3336C11.8738 13.0132 12.1435 13.6532 12.6642 14.1538C13.2693 14.736 14.0086 14.7356 14.6168 14.1608C14.96 13.8361 15.1999 13.4412 15.3688 13.0061C15.9679 11.4619 15.9982 9.89103 15.5486 8.30797C15.3688 7.67466 15.0888 7.0869 14.5945 6.62831C14.0074 6.08374 13.2885 6.08295 12.6987 6.62164C12.365 6.92671 12.1341 7.30245 11.9554 7.71274C11.582 8.56946 11.4438 9.47171 11.4403 10.6209ZM17.8503 10.1074C17.8103 9.64604 17.7679 8.89651 17.6717 8.15366C17.6202 7.7575 17.4934 7.36802 17.3654 6.98756C17.3218 6.85839 17.1828 6.69624 17.0634 6.67307C16.8797 6.63734 16.7957 6.84229 16.747 6.99188C16.6386 7.32483 16.5251 7.6621 16.4709 8.00643C16.2196 9.60285 16.2161 11.2044 16.4725 12.8C16.5338 13.1812 16.672 13.5523 16.8027 13.9178C16.8373 14.0148 16.9751 14.1365 17.0634 14.1349C17.1537 14.1334 17.27 14.0093 17.3238 13.9111C17.4133 13.7474 17.4777 13.566 17.5252 13.3846C17.7832 12.405 17.8161 11.4011 17.8507 10.1074H17.8503Z" fill="white"/>
</svg>
