<svg width="70" height="70" viewBox="0 0 70 70" fill="none" xmlns="http://www.w3.org/2000/svg">
<path d="M45.9095 35.9695C47.2181 37.238 47.9863 39.6348 48.2928 40.7714C48.352 40.9858 48.3619 41.2114 48.3217 41.4304C48.2814 41.6494 48.1922 41.8559 48.061 42.0337C46.1938 44.5089 40.6933 46.4045 40.6933 46.4045C41.2478 46.027 42.0321 44.3728 42.0321 44.3728C43.5565 41.485 37.8785 40.5032 37.8785 40.5032C35.1444 40.2969 33.126 36.4996 32.2328 34.4761C31.9663 33.8539 31.7551 33.2084 31.6017 32.5475C30.8335 29.3813 28.6417 29.8784 28.6417 29.8784C26.9339 29.7381 20.7962 32.3825 20.7962 32.3825C20.4057 33.1395 19.8052 33.7617 19.0702 34.1708C18.8737 34.2846 18.6543 34.3509 18.4288 34.3645C18.2034 34.3781 17.9779 34.3386 17.7697 34.2492C17.5831 34.1692 17.4226 34.0365 17.3069 33.8667C17.1912 33.6968 17.1251 33.4968 17.1164 33.29C17.0976 32.9963 17.1531 32.7025 17.2774 32.437C17.4017 32.1715 17.5907 31.9432 17.8261 31.774C19.7114 30.3569 20.7962 31.8627 20.7962 31.8627C21.2115 31.7678 27.9037 28.2736 27.9037 28.2736C28.0429 27.9023 28.4058 27.1804 28.6679 26.673C28.9306 26.1493 29.3039 25.6921 29.7608 25.3343C30.7238 24.6217 31.9181 24.3159 33.0958 24.4804C33.9226 24.5873 34.7205 24.8615 35.4428 25.2869C37.5156 26.4708 40.7336 27.3289 40.7336 27.3289C45.718 19.6805 50.4725 17.6509 50.4725 17.6509L51.5331 20.6727L55.4972 17.8221C55.4972 16.997 55.4972 16.5061 55.4972 16.5061C55.1544 15.0333 52.2065 14.7528 52.2065 14.7528C51.3153 14.6125 50.0813 13.839 50.0813 13.839C40.6489 9.99421 35.0335 9.00619 34.9992 9C34.9629 9 29.3535 9.99421 19.9171 13.839C19.9171 13.839 18.6831 14.6125 17.7919 14.7528C17.7919 14.7528 14.844 15.0333 14.5012 16.5061C14.5012 16.5061 14.4327 36.9162 15.3239 39.8617C15.3239 39.8617 16.078 44.5605 28.0086 54.8718L34.8641 60.8866L34.9931 61L35.1222 60.8866L41.9777 54.8718C53.9083 44.5584 54.6624 39.8617 54.6624 39.8617C54.9689 38.8448 55.1625 35.7529 55.2834 32.1349C52.7751 34.8412 45.9095 35.9695 45.9095 35.9695Z" fill="white"/>
</svg>
