<svg width="2472" height="1234" viewBox="0 0 2472 1234" fill="none" xmlns="http://www.w3.org/2000/svg">
<g opacity="0.3">
<path d="M774.941 782.338C765.971 748.859 775.934 711.873 801.903 673.574C827.871 635.278 869.772 595.782 924.427 557.376C1033.73 480.57 1193.85 408.254 1378.88 358.674C1563.92 309.095 1738.75 291.661 1871.81 303.527C1938.34 309.46 1994.38 322.714 2036.01 342.895C2077.65 363.078 2104.78 390.127 2113.75 423.606C2122.72 457.085 2112.75 494.07 2086.78 532.369C2060.82 570.665 2018.91 610.161 1964.26 648.567C1854.96 725.373 1694.84 797.689 1509.8 847.269C1324.77 896.849 1149.94 914.282 1016.88 902.417C950.345 896.484 894.309 883.23 852.673 863.048C811.033 842.865 783.912 815.816 774.941 782.338Z" stroke="url(#paint0_linear_1424_116942)" stroke-opacity="0.5" stroke-width="2"/>
<circle cx="2012" cy="292" r="159" fill="#111111"/>
<circle cx="2012" cy="292" r="159" fill="#111111"/>
<circle cx="2012" cy="292" r="159" fill="url(#paint1_radial_1424_116942)" fill-opacity="0.5"/>
<circle cx="2012" cy="292" r="159" fill="url(#paint2_radial_1424_116942)"/>
<circle cx="2012" cy="292" r="159" fill="url(#paint3_radial_1424_116942)"/>
<circle cx="891.687" cy="616.687" r="474.006" transform="rotate(-18.4562 891.687 616.687)" fill="black"/>
<circle cx="891.687" cy="616.687" r="474.006" transform="rotate(-18.4562 891.687 616.687)" fill="url(#paint4_radial_1424_116942)" fill-opacity="0.5"/>
<circle cx="891.687" cy="616.687" r="474.006" transform="rotate(-18.4562 891.687 616.687)" fill="url(#paint5_radial_1424_116942)"/>
<circle cx="891.687" cy="616.687" r="474.006" transform="rotate(-18.4562 891.687 616.687)" fill="url(#paint6_radial_1424_116942)"/>
</g>
<defs>
<linearGradient id="paint0_linear_1424_116942" x1="1706.78" y1="1445.08" x2="1366.08" y2="361.652" gradientUnits="userSpaceOnUse">
<stop stop-color="white"/>
<stop offset="1" stop-color="white" stop-opacity="0"/>
</linearGradient>
<radialGradient id="paint1_radial_1424_116942" cx="0" cy="0" r="1" gradientUnits="userSpaceOnUse" gradientTransform="translate(1944.69 292) rotate(10.7944) scale(284.053)">
<stop stop-color="white" stop-opacity="0"/>
<stop offset="0.551519" stop-color="white" stop-opacity="0.1"/>
<stop offset="0.90625" stop-color="white" stop-opacity="0.8"/>
</radialGradient>
<radialGradient id="paint2_radial_1424_116942" cx="0" cy="0" r="1" gradientUnits="userSpaceOnUse" gradientTransform="translate(1944.69 292) rotate(10.7944) scale(284.053)">
<stop stop-opacity="0"/>
<stop offset="0.297881" stop-opacity="0.5"/>
<stop offset="0.90625" stop-color="#747474"/>
</radialGradient>
<radialGradient id="paint3_radial_1424_116942" cx="0" cy="0" r="1" gradientUnits="userSpaceOnUse" gradientTransform="translate(1944.69 292) rotate(4.53292) scale(277.309)">
<stop stop-opacity="0"/>
<stop offset="0.559409" stop-opacity="0"/>
<stop offset="0.90625" stop-color="white"/>
</radialGradient>
<radialGradient id="paint4_radial_1424_116942" cx="0" cy="0" r="1" gradientUnits="userSpaceOnUse" gradientTransform="translate(691.036 616.687) rotate(10.7944) scale(846.812)">
<stop stop-color="white" stop-opacity="0"/>
<stop offset="0.551519" stop-color="white" stop-opacity="0.1"/>
<stop offset="0.90625" stop-color="white" stop-opacity="0.8"/>
</radialGradient>
<radialGradient id="paint5_radial_1424_116942" cx="0" cy="0" r="1" gradientUnits="userSpaceOnUse" gradientTransform="translate(691.036 616.687) rotate(10.7944) scale(846.812)">
<stop stop-opacity="0"/>
<stop offset="0.297881" stop-opacity="0.5"/>
<stop offset="0.90625" stop-color="#D04726"/>
</radialGradient>
<radialGradient id="paint6_radial_1424_116942" cx="0" cy="0" r="1" gradientUnits="userSpaceOnUse" gradientTransform="translate(691.036 616.687) rotate(4.53292) scale(826.704)">
<stop stop-opacity="0"/>
<stop offset="0.559409" stop-opacity="0"/>
<stop offset="0.90625" stop-color="white"/>
</radialGradient>
</defs>
</svg>
