<svg width="70" height="70" viewBox="0 0 70 70" fill="none" xmlns="http://www.w3.org/2000/svg">
<path d="M59.699 42.1337C59.9874 43.0195 60.8181 43.6605 61.7946 43.6605C63.0104 43.6605 64 42.6678 64 41.4484C64 40.2289 63.0104 39.2362 61.7946 39.2362C60.7378 39.2362 59.8514 39.9873 59.6384 40.9849H38.9626V38.5328H41.7513C42.0053 39.4745 42.8605 40.1697 43.8797 40.1697C45.0954 40.1697 46.085 39.177 46.085 37.9576C46.085 36.7381 45.0954 35.7454 43.8797 35.7454C42.8622 35.7454 42.0053 36.4406 41.7513 37.3823H38.9626V35.0699H47.2139L50.3401 38.4687H52.6291C52.8716 39.4268 53.7367 40.1385 54.7656 40.1385C55.9814 40.1385 56.971 39.1458 56.971 37.9263C56.971 36.7069 55.9814 35.7142 54.7656 35.7142C53.7596 35.7142 52.9092 36.3946 52.6454 37.3199H50.8415L47.7153 33.9211H38.8725C38.5743 32.7772 37.5404 31.9325 36.3067 31.9325H34.2602L34.275 31.8898C34.2602 31.8043 34.2438 31.7172 34.2291 31.6317C34.2455 31.6268 34.2635 31.6202 34.2799 31.6136H51.3937L54.782 35.0634H59.6433C59.8662 36.0478 60.7444 36.7874 61.793 36.7874C63.0087 36.7874 63.9984 35.7947 63.9984 34.5752C63.9984 33.3558 63.0087 32.3631 61.793 32.3631C60.8066 32.3631 59.9694 33.0172 59.6876 33.9145H55.2604L51.8721 30.4648H34.6092C34.7256 29.6595 34.8321 28.9199 34.9451 28.1459C34.9451 28.136 34.9451 28.1228 34.9451 28.113H55.4177C55.693 29.0202 56.5352 29.6825 57.5281 29.6825C58.7438 29.6825 59.7334 28.6899 59.7334 27.4704C59.7334 26.2509 58.7438 25.2582 57.5281 25.2582C56.486 25.2582 55.6127 25.9879 55.3833 26.9642H34.9779C34.9779 26.9395 34.9779 26.9165 34.9779 26.8919C34.9549 26.4087 34.9336 25.9386 34.9107 25.4439C34.891 25.2056 34.8632 24.9624 34.8321 24.7159H44.2303C44.4908 25.6461 45.3428 26.3314 46.3521 26.3314C47.5678 26.3314 48.5575 25.3388 48.5575 24.1193C48.5575 22.8998 47.5678 21.9071 46.3521 21.9071C45.3264 21.9071 44.4646 22.6138 44.2188 23.5654H34.6518C34.606 23.3205 34.5552 23.0724 34.4978 22.8209C34.3536 22.3574 34.2373 21.8693 34.1013 21.345C34.0866 21.2957 34.0685 21.2464 34.0521 21.1971H46.5553L52.4439 15.4104H56.1141C56.4401 16.2223 57.2331 16.7991 58.1589 16.7991C59.3746 16.7991 60.3643 15.8064 60.3643 14.587C60.3643 13.3675 59.3746 12.3748 58.1589 12.3748C57.0529 12.3748 56.137 13.1966 55.9797 14.2616H51.9753L46.0867 20.0483H33.6524V20.0763C33.5754 19.8758 33.4951 19.6752 33.4082 19.4731C32.3498 17.1262 30.8178 15.1589 28.7026 13.6551C24.685 10.8003 19.0258 11.1701 15.4261 14.6034C11.2513 18.5856 9.84548 23.5375 10.491 29.1714C10.5943 30.0671 10.763 30.9562 10.9203 31.9374H8.65595C7.18953 31.9374 6 33.1306 6 34.6015V55.5907C6 57.0616 7.18953 58.2548 8.65595 58.2548H36.2985C37.7649 58.2548 38.9544 57.0616 38.9544 55.5907V52.2692H54.0381L57.0611 55.4576H59.604C59.7547 56.5324 60.6739 57.3624 61.7864 57.3624C63.0022 57.3624 63.9918 56.3697 63.9918 55.1502C63.9918 53.9307 63.0022 52.9381 61.7864 52.9381C60.8673 52.9381 60.0792 53.5051 59.7482 54.3071H57.5543L54.5313 51.1187H38.9544V48.9937H41.6858C41.9397 49.9354 42.795 50.6306 43.8141 50.6306C45.0299 50.6306 46.0195 49.6379 46.0195 48.4184C46.0195 47.199 45.0299 46.2063 43.8141 46.2063C42.7966 46.2063 41.9397 46.9015 41.6858 47.8432H38.9544V45.4799H45.9146L49.2505 48.8786H56.6138C56.9284 49.7152 57.7329 50.3134 58.6766 50.3134C59.8924 50.3134 60.882 49.3207 60.882 48.1012C60.882 46.8818 59.8924 45.8891 58.6766 45.8891C57.5871 45.8891 56.6826 46.6862 56.504 47.7282H49.7306L46.3947 44.3294H38.9544V42.1419H59.6892L59.699 42.1337ZM61.7946 40.385C62.3779 40.385 62.8531 40.8616 62.8531 41.4467C62.8531 42.0318 62.3779 42.5084 61.7946 42.5084C61.2113 42.5084 60.7362 42.0318 60.7362 41.4467C60.7362 40.8616 61.2113 40.385 61.7946 40.385ZM43.8797 36.8926C44.463 36.8926 44.9381 37.3692 44.9381 37.9543C44.9381 38.5394 44.463 39.016 43.8797 39.016C43.2964 39.016 42.8212 38.5394 42.8212 37.9543C42.8212 37.3692 43.2964 36.8926 43.8797 36.8926ZM54.7673 36.8597C55.3505 36.8597 55.8257 37.3363 55.8257 37.9214C55.8257 38.5065 55.3505 38.9831 54.7673 38.9831C54.184 38.9831 53.7088 38.5065 53.7088 37.9214C53.7088 37.3363 54.184 36.8597 54.7673 36.8597ZM61.7946 33.5086C62.3779 33.5086 62.8531 33.9852 62.8531 34.5703C62.8531 35.1554 62.3779 35.632 61.7946 35.632C61.2113 35.632 60.7362 35.1554 60.7362 34.5703C60.7362 33.9852 61.2113 33.5086 61.7946 33.5086ZM57.5313 26.4021C58.1146 26.4021 58.5898 26.8787 58.5898 27.4638C58.5898 28.0489 58.1146 28.5255 57.5313 28.5255C56.9481 28.5255 56.4729 28.0489 56.4729 27.4638C56.4729 26.8787 56.9481 26.4021 57.5313 26.4021ZM46.3554 23.051C46.9387 23.051 47.4138 23.5276 47.4138 24.1127C47.4138 24.6978 46.9387 25.1744 46.3554 25.1744C45.7721 25.1744 45.2969 24.6978 45.2969 24.1127C45.2969 23.5276 45.7721 23.051 46.3554 23.051ZM58.1638 13.517C58.7471 13.517 59.2222 13.9937 59.2222 14.5788C59.2222 15.1638 58.7471 15.6405 58.1638 15.6405C57.5805 15.6405 57.1053 15.1638 57.1053 14.5788C57.1053 13.9937 57.5805 13.517 58.1638 13.517ZM16.1847 21.133C16.8368 19.4928 17.8166 18.063 19.0995 16.8616C20.8756 15.1967 24.3197 15.3298 26.1056 17.0802C28.7058 19.6276 29.897 22.8061 30.1067 26.3643C30.2034 27.9897 30.0215 29.6299 29.9773 31.2652C29.9658 31.6827 29.8462 31.9111 29.3661 31.921C29.2334 31.9243 29.1007 31.9276 28.968 31.9292H15.4031C14.8674 28.205 14.7969 24.6222 16.1831 21.133H16.1847ZM30.7932 41.782H24.3754L25.7599 53.8256H19.0897L20.851 41.8839H14.307L12.2933 38.7415L32.6808 38.6791L30.7932 41.7836V41.782ZM61.7963 54.0803C62.3796 54.0803 62.8547 54.5569 62.8547 55.142C62.8547 55.7271 62.3796 56.2037 61.7963 56.2037C61.213 56.2037 60.7378 55.7271 60.7378 55.142C60.7378 54.5569 61.213 54.0803 61.7963 54.0803ZM43.824 47.3485C44.4072 47.3485 44.8824 47.8251 44.8824 48.4102C44.8824 48.9953 44.4072 49.4719 43.824 49.4719C43.2407 49.4719 42.7655 48.9953 42.7655 48.4102C42.7655 47.8251 43.2407 47.3485 43.824 47.3485ZM58.6865 47.0313C59.2698 47.0313 59.7449 47.5079 59.7449 48.093C59.7449 48.6781 59.2698 49.1547 58.6865 49.1547C58.1032 49.1547 57.628 48.6781 57.628 48.093C57.628 47.5079 58.1032 47.0313 58.6865 47.0313Z" fill="white"/>
</svg>
