<svg width="20" height="19" viewBox="0 0 20 19" fill="none" xmlns="http://www.w3.org/2000/svg">
<path fill-rule="evenodd" clip-rule="evenodd" d="M17.6267 5.11841C17.8806 10.8895 13.6554 17.3221 6.1753 17.3221C3.98121 17.3228 1.83475 16.6822 0 15.479C2.13569 15.7377 4.28557 15.1251 5.96404 13.7794C4.2015 13.7469 2.71388 12.5606 2.2013 10.9308C2.80477 11.0487 3.42737 11.0248 4.02004 10.861C2.08213 10.4642 0.745505 8.68749 0.78884 6.78683C1.33189 7.09356 1.95348 7.27841 2.61434 7.29872C0.81931 6.07856 0.311473 3.666 1.3671 1.82289C3.35376 4.30452 6.32223 5.93772 9.67057 6.10903C9.08351 3.54276 10.995 1.07129 13.5951 1.07129C14.7134 1.07178 15.7801 1.54175 16.5352 2.36661C17.4391 2.18537 18.3046 1.84858 19.0933 1.37125C18.7968 2.31677 18.1678 3.12285 17.3227 3.64027C18.1222 3.54403 18.9024 3.32643 19.6364 2.99498C19.098 3.81658 18.4174 4.53564 17.6267 5.11841Z" fill="white"/>
</svg>
