<svg width="13" height="15" viewBox="0 0 13 15" fill="none" xmlns="http://www.w3.org/2000/svg">
<mask id="path-1-inside-1_2554_116381" fill="white">
<path fill-rule="evenodd" clip-rule="evenodd" d="M1.22847 1.05282C2.76427 2.93561 4.45053 5.30096 4.72328 5.68354C4.73782 5.70394 4.74834 5.7187 4.75461 5.72745C4.9 5.93044 5.02003 6.08133 5.11118 6.19592C5.31353 6.4503 5.37358 6.52579 5.25284 6.59513C5.15545 6.65104 5.05498 6.66948 4.95473 6.66948C4.84134 6.66948 4.71359 6.61432 4.62057 6.5252C4.55482 6.46221 4.10493 5.80222 3.49231 4.84209C3.02357 4.10742 2.63129 3.49799 2.62059 3.48779C2.59585 3.46418 2.59627 3.46499 3.44451 4.998C3.97714 5.96064 4.34147 6.672 4.34147 6.71751C4.34147 6.81008 4.31646 6.85875 4.2034 6.98612C4.01493 7.19854 3.93067 7.43717 3.86985 7.93103C3.80167 8.48463 3.60994 8.87576 3.07861 9.54503C2.76759 9.93686 2.7167 10.0087 2.63821 10.1666C2.53937 10.3655 2.51218 10.4768 2.50116 10.728C2.48952 10.9935 2.5122 11.165 2.59251 11.4188C2.66281 11.641 2.7362 11.7878 2.92381 12.0814C3.08571 12.3346 3.17894 12.5228 3.17894 12.5965C3.17894 12.6551 3.19001 12.6551 3.4409 12.5979C4.0413 12.461 4.52882 12.2201 4.80301 11.925C4.9727 11.7422 5.01255 11.6414 5.01383 11.391C5.01468 11.2273 5.00898 11.193 4.96516 11.0988C4.89382 10.9454 4.76395 10.8179 4.47771 10.6203C4.10265 10.3613 3.94246 10.1528 3.89821 9.86609C3.86192 9.63085 3.90403 9.46485 4.11151 9.02563C4.32626 8.57097 4.37948 8.37723 4.41548 7.91892C4.43873 7.62284 4.47093 7.50608 4.55515 7.41238C4.64299 7.31465 4.72206 7.28154 4.93943 7.2515C5.29382 7.20264 5.51948 7.11002 5.70497 6.93737C5.86587 6.7876 5.93321 6.64328 5.94354 6.42603L5.95139 6.26137L5.86147 6.15548C5.53583 5.77196 1.0104 0.751343 0.990358 0.751343C0.986077 0.751343 1.09323 0.887015 1.22847 1.05282ZM3.36174 11.0284C3.43536 10.8966 3.39624 10.7274 3.27308 10.6446C3.15672 10.5665 2.97596 10.6033 2.97596 10.7052C2.97596 10.7362 2.99297 10.7588 3.03132 10.7788C3.09588 10.8124 3.10057 10.8501 3.04977 10.9272C2.99832 11.0053 3.00247 11.074 3.06148 11.1206C3.15659 11.1959 3.29122 11.1545 3.36174 11.0284ZM5.57781 3.84631C5.43253 3.82354 5.42641 3.82087 5.49477 3.81026C5.62579 3.78991 5.93514 3.81764 6.14833 3.86885C6.64602 3.98834 7.0989 4.29445 7.5823 4.83811L7.71071 4.98253L7.89445 4.9527C8.66844 4.82706 9.45582 4.92691 10.1144 5.23421C10.2956 5.31875 10.5812 5.48704 10.6169 5.53028C10.6282 5.54407 10.6492 5.63279 10.6633 5.72745C10.7122 6.05498 10.6877 6.30603 10.5885 6.49353C10.5346 6.59557 10.5316 6.62791 10.5678 6.71523C10.5968 6.78491 10.6775 6.83648 10.7575 6.83637C10.9212 6.83615 11.0973 6.56893 11.179 6.1971L11.2114 6.04941L11.2756 6.1229C11.6279 6.52605 11.9046 7.07587 11.9521 7.46721L11.9645 7.56923L11.9053 7.47649C11.8033 7.31689 11.701 7.20821 11.5698 7.12058C11.3335 6.9626 11.0835 6.90884 10.4217 6.87361C9.82389 6.84179 9.4856 6.79022 9.15013 6.67972C8.57929 6.49175 8.2916 6.24141 7.61355 5.34289C7.31242 4.94379 7.12628 4.72298 6.94113 4.54516C6.5204 4.14112 6.107 3.92922 5.57781 3.84631ZM10.7517 4.73738C10.7668 4.46995 10.8027 4.29356 10.8749 4.13247C10.9034 4.06871 10.9302 4.01652 10.9343 4.01652C10.9385 4.01652 10.926 4.06359 10.9067 4.1211C10.8542 4.27744 10.8456 4.49127 10.8818 4.74005C10.9276 5.05572 10.9538 5.10127 11.2841 5.44225C11.439 5.60219 11.6192 5.80391 11.6845 5.89051L11.8033 6.04798L11.6845 5.93545C11.5393 5.79783 11.2052 5.52943 11.1314 5.49106C11.0819 5.46533 11.0746 5.46578 11.0441 5.49646C11.016 5.52474 11.01 5.56722 11.0061 5.76806C11 6.0811 10.9578 6.28202 10.8559 6.48292C10.8007 6.59158 10.792 6.56839 10.8419 6.44574C10.8792 6.35417 10.8829 6.31391 10.8827 6.01088C10.8821 5.40201 10.8105 5.25564 10.3908 5.00489C10.2846 4.94137 10.1093 4.84976 10.0015 4.80129C9.89382 4.75284 9.8082 4.71063 9.81127 4.70748C9.82318 4.69553 10.2325 4.8162 10.3972 4.8802C10.6423 4.97541 10.6827 4.98775 10.7125 4.97626C10.7324 4.96856 10.742 4.90988 10.7517 4.73738ZM5.4221 4.26995C5.3826 4.74002 5.56508 5.36884 5.86001 5.77898C6.08864 6.09691 6.44304 6.34396 6.70469 6.36782C6.876 6.38344 6.92749 6.32927 6.84998 6.21495C6.74239 6.05622 6.61004 5.81181 6.57502 5.70718C6.55327 5.64217 6.50599 5.45016 6.46995 5.28048C6.34692 4.70119 6.226 4.4756 5.94668 4.30425C5.84489 4.2418 5.62752 4.16008 5.50145 4.13685L5.43432 4.12447L5.4221 4.26995ZM10.394 8.83138C9.0157 8.27085 8.53023 7.7843 8.53023 6.96334C8.53023 6.84254 8.5344 6.74369 8.53939 6.74369C8.54445 6.74369 8.59774 6.78356 8.65788 6.83229C8.93737 7.05872 9.25036 7.15544 10.1168 7.28308C10.6266 7.35827 10.9136 7.41892 11.1783 7.50762C12.0195 7.78942 12.54 8.36128 12.6641 9.14027C12.7002 9.3666 12.679 9.79103 12.6206 10.0147C12.5744 10.1914 12.4335 10.5099 12.3961 10.5221C12.3858 10.5255 12.3756 10.4854 12.373 10.4308C12.3588 10.1383 12.2125 9.8536 11.9667 9.64027C11.6873 9.39773 11.3119 9.2047 10.394 8.83138ZM9.35981 8.7697C9.37915 8.82792 9.40913 8.96043 9.42636 9.06424C9.53677 9.72788 9.19189 10.2641 8.52101 10.4718C8.44998 10.4938 8.17023 10.5491 7.89932 10.5947C7.35093 10.6869 7.10616 10.7522 6.86028 10.8719C6.6859 10.9567 6.47478 11.0838 6.48733 11.0964C6.49137 11.1005 6.53118 11.0909 6.57576 11.0751C6.88584 10.9651 7.23092 10.9082 7.75522 10.8806C7.9633 10.8697 8.19995 10.8523 8.28116 10.842C8.74824 10.7826 9.07199 10.6392 9.32376 10.3804C9.46382 10.2364 9.54734 10.1022 9.61465 9.91304C9.6573 9.79302 9.66307 9.74844 9.66339 9.53581C9.66377 9.31915 9.65859 9.2795 9.61234 9.14622C9.55182 8.97151 9.48041 8.84041 9.38998 8.73787L9.32465 8.66383L9.35981 8.7697ZM10.0582 10.1977C9.87506 9.8 9.83304 9.41611 9.93334 9.0581C9.9441 9.0198 9.96133 8.98848 9.97177 8.98848C9.98214 8.98848 10.0253 9.01211 10.0678 9.04093C10.1521 9.09832 10.3214 9.19496 10.7723 9.44326C11.335 9.75312 11.6558 9.99303 11.8739 10.2672C12.065 10.5073 12.1832 10.7807 12.2401 11.1141C12.2723 11.303 12.2534 11.7574 12.2055 11.9476C12.0542 12.5472 11.7026 13.0182 11.2011 13.2931C11.1277 13.3333 11.0617 13.3664 11.0545 13.3666C11.0474 13.3667 11.0742 13.298 11.114 13.2137C11.2827 12.8575 11.3019 12.511 11.1744 12.1254C11.0963 11.8893 10.9371 11.6011 10.6156 11.1141C10.2418 10.548 10.1501 10.3973 10.0582 10.1977ZM6.60877 11.5019C6.02907 11.597 5.39267 11.9068 4.88119 12.343L4.72892 12.4729L4.86274 12.4941C5.56109 12.6042 5.74914 12.7018 6.23355 13.2059C6.51232 13.4959 6.60646 13.5604 6.83768 13.6201C7.17729 13.7076 7.51204 13.5467 7.62687 13.2407C7.67817 13.104 7.67132 12.8776 7.61246 12.7639C7.47246 12.4932 7.06457 12.4057 6.86733 12.604C6.70304 12.7691 6.75091 13.018 6.95524 13.0607C7.00202 13.0706 7.00069 13.0685 6.94332 13.0423C6.8539 13.0014 6.81505 12.9448 6.81455 12.8547C6.81341 12.6434 7.05278 12.5248 7.27547 12.6263C7.43851 12.7006 7.50326 12.7977 7.50326 12.9679C7.50326 13.2301 7.28239 13.4276 7.02534 13.3953C6.88794 13.378 6.71991 13.2893 6.62981 13.1864C6.40309 12.9275 6.49141 12.5189 6.80795 12.3621C7.04893 12.2428 7.36925 12.2722 7.61765 12.4364C7.90304 12.6252 8.0244 12.7978 8.27021 13.3641C8.35027 13.5484 8.45325 13.756 8.49904 13.8253C8.73191 14.1774 9.01089 14.35 9.34694 14.35C9.53229 14.35 9.67171 14.3158 9.84713 14.2274C9.97747 14.1616 10.1622 14.0367 10.1489 14.0233C10.1451 14.0195 10.0911 14.0365 10.0288 14.061C9.66185 14.2056 9.28885 14.1956 9.07225 14.0354C8.93583 13.9346 8.8258 13.7338 8.76925 13.4826C8.75945 13.4391 8.72717 13.2471 8.69746 13.0559C8.62214 12.5712 8.54983 12.3533 8.3812 12.1033C8.20866 11.8475 7.87697 11.6328 7.50615 11.5369C7.27479 11.4771 6.8586 11.4608 6.60877 11.5019ZM5.79688 7.75439C5.84694 7.56763 6.00866 7.38952 6.17503 7.3379C6.28082 7.30511 6.49949 7.32605 6.60231 7.37883C6.80156 7.48117 6.94622 7.71423 6.91483 7.88248C6.87654 8.08762 6.54718 8.25176 6.1683 8.25445C5.97478 8.2558 5.90331 8.22954 5.82941 8.12989C5.78367 8.06815 5.76634 7.86832 5.79688 7.75439ZM6.55143 7.45197C6.6508 7.51326 6.67636 7.60388 6.61794 7.68772C6.57769 7.74549 6.4531 7.80037 6.36205 7.80037C6.22526 7.80037 6.07604 7.70225 6.07604 7.6124C6.07604 7.43186 6.3622 7.33521 6.55143 7.45197Z"/>
</mask>
<path fill-rule="evenodd" clip-rule="evenodd" d="M1.22847 1.05282C2.76427 2.93561 4.45053 5.30096 4.72328 5.68354C4.73782 5.70394 4.74834 5.7187 4.75461 5.72745C4.9 5.93044 5.02003 6.08133 5.11118 6.19592C5.31353 6.4503 5.37358 6.52579 5.25284 6.59513C5.15545 6.65104 5.05498 6.66948 4.95473 6.66948C4.84134 6.66948 4.71359 6.61432 4.62057 6.5252C4.55482 6.46221 4.10493 5.80222 3.49231 4.84209C3.02357 4.10742 2.63129 3.49799 2.62059 3.48779C2.59585 3.46418 2.59627 3.46499 3.44451 4.998C3.97714 5.96064 4.34147 6.672 4.34147 6.71751C4.34147 6.81008 4.31646 6.85875 4.2034 6.98612C4.01493 7.19854 3.93067 7.43717 3.86985 7.93103C3.80167 8.48463 3.60994 8.87576 3.07861 9.54503C2.76759 9.93686 2.7167 10.0087 2.63821 10.1666C2.53937 10.3655 2.51218 10.4768 2.50116 10.728C2.48952 10.9935 2.5122 11.165 2.59251 11.4188C2.66281 11.641 2.7362 11.7878 2.92381 12.0814C3.08571 12.3346 3.17894 12.5228 3.17894 12.5965C3.17894 12.6551 3.19001 12.6551 3.4409 12.5979C4.0413 12.461 4.52882 12.2201 4.80301 11.925C4.9727 11.7422 5.01255 11.6414 5.01383 11.391C5.01468 11.2273 5.00898 11.193 4.96516 11.0988C4.89382 10.9454 4.76395 10.8179 4.47771 10.6203C4.10265 10.3613 3.94246 10.1528 3.89821 9.86609C3.86192 9.63085 3.90403 9.46485 4.11151 9.02563C4.32626 8.57097 4.37948 8.37723 4.41548 7.91892C4.43873 7.62284 4.47093 7.50608 4.55515 7.41238C4.64299 7.31465 4.72206 7.28154 4.93943 7.2515C5.29382 7.20264 5.51948 7.11002 5.70497 6.93737C5.86587 6.7876 5.93321 6.64328 5.94354 6.42603L5.95139 6.26137L5.86147 6.15548C5.53583 5.77196 1.0104 0.751343 0.990358 0.751343C0.986077 0.751343 1.09323 0.887015 1.22847 1.05282ZM3.36174 11.0284C3.43536 10.8966 3.39624 10.7274 3.27308 10.6446C3.15672 10.5665 2.97596 10.6033 2.97596 10.7052C2.97596 10.7362 2.99297 10.7588 3.03132 10.7788C3.09588 10.8124 3.10057 10.8501 3.04977 10.9272C2.99832 11.0053 3.00247 11.074 3.06148 11.1206C3.15659 11.1959 3.29122 11.1545 3.36174 11.0284ZM5.57781 3.84631C5.43253 3.82354 5.42641 3.82087 5.49477 3.81026C5.62579 3.78991 5.93514 3.81764 6.14833 3.86885C6.64602 3.98834 7.0989 4.29445 7.5823 4.83811L7.71071 4.98253L7.89445 4.9527C8.66844 4.82706 9.45582 4.92691 10.1144 5.23421C10.2956 5.31875 10.5812 5.48704 10.6169 5.53028C10.6282 5.54407 10.6492 5.63279 10.6633 5.72745C10.7122 6.05498 10.6877 6.30603 10.5885 6.49353C10.5346 6.59557 10.5316 6.62791 10.5678 6.71523C10.5968 6.78491 10.6775 6.83648 10.7575 6.83637C10.9212 6.83615 11.0973 6.56893 11.179 6.1971L11.2114 6.04941L11.2756 6.1229C11.6279 6.52605 11.9046 7.07587 11.9521 7.46721L11.9645 7.56923L11.9053 7.47649C11.8033 7.31689 11.701 7.20821 11.5698 7.12058C11.3335 6.9626 11.0835 6.90884 10.4217 6.87361C9.82389 6.84179 9.4856 6.79022 9.15013 6.67972C8.57929 6.49175 8.2916 6.24141 7.61355 5.34289C7.31242 4.94379 7.12628 4.72298 6.94113 4.54516C6.5204 4.14112 6.107 3.92922 5.57781 3.84631ZM10.7517 4.73738C10.7668 4.46995 10.8027 4.29356 10.8749 4.13247C10.9034 4.06871 10.9302 4.01652 10.9343 4.01652C10.9385 4.01652 10.926 4.06359 10.9067 4.1211C10.8542 4.27744 10.8456 4.49127 10.8818 4.74005C10.9276 5.05572 10.9538 5.10127 11.2841 5.44225C11.439 5.60219 11.6192 5.80391 11.6845 5.89051L11.8033 6.04798L11.6845 5.93545C11.5393 5.79783 11.2052 5.52943 11.1314 5.49106C11.0819 5.46533 11.0746 5.46578 11.0441 5.49646C11.016 5.52474 11.01 5.56722 11.0061 5.76806C11 6.0811 10.9578 6.28202 10.8559 6.48292C10.8007 6.59158 10.792 6.56839 10.8419 6.44574C10.8792 6.35417 10.8829 6.31391 10.8827 6.01088C10.8821 5.40201 10.8105 5.25564 10.3908 5.00489C10.2846 4.94137 10.1093 4.84976 10.0015 4.80129C9.89382 4.75284 9.8082 4.71063 9.81127 4.70748C9.82318 4.69553 10.2325 4.8162 10.3972 4.8802C10.6423 4.97541 10.6827 4.98775 10.7125 4.97626C10.7324 4.96856 10.742 4.90988 10.7517 4.73738ZM5.4221 4.26995C5.3826 4.74002 5.56508 5.36884 5.86001 5.77898C6.08864 6.09691 6.44304 6.34396 6.70469 6.36782C6.876 6.38344 6.92749 6.32927 6.84998 6.21495C6.74239 6.05622 6.61004 5.81181 6.57502 5.70718C6.55327 5.64217 6.50599 5.45016 6.46995 5.28048C6.34692 4.70119 6.226 4.4756 5.94668 4.30425C5.84489 4.2418 5.62752 4.16008 5.50145 4.13685L5.43432 4.12447L5.4221 4.26995ZM10.394 8.83138C9.0157 8.27085 8.53023 7.7843 8.53023 6.96334C8.53023 6.84254 8.5344 6.74369 8.53939 6.74369C8.54445 6.74369 8.59774 6.78356 8.65788 6.83229C8.93737 7.05872 9.25036 7.15544 10.1168 7.28308C10.6266 7.35827 10.9136 7.41892 11.1783 7.50762C12.0195 7.78942 12.54 8.36128 12.6641 9.14027C12.7002 9.3666 12.679 9.79103 12.6206 10.0147C12.5744 10.1914 12.4335 10.5099 12.3961 10.5221C12.3858 10.5255 12.3756 10.4854 12.373 10.4308C12.3588 10.1383 12.2125 9.8536 11.9667 9.64027C11.6873 9.39773 11.3119 9.2047 10.394 8.83138ZM9.35981 8.7697C9.37915 8.82792 9.40913 8.96043 9.42636 9.06424C9.53677 9.72788 9.19189 10.2641 8.52101 10.4718C8.44998 10.4938 8.17023 10.5491 7.89932 10.5947C7.35093 10.6869 7.10616 10.7522 6.86028 10.8719C6.6859 10.9567 6.47478 11.0838 6.48733 11.0964C6.49137 11.1005 6.53118 11.0909 6.57576 11.0751C6.88584 10.9651 7.23092 10.9082 7.75522 10.8806C7.9633 10.8697 8.19995 10.8523 8.28116 10.842C8.74824 10.7826 9.07199 10.6392 9.32376 10.3804C9.46382 10.2364 9.54734 10.1022 9.61465 9.91304C9.6573 9.79302 9.66307 9.74844 9.66339 9.53581C9.66377 9.31915 9.65859 9.2795 9.61234 9.14622C9.55182 8.97151 9.48041 8.84041 9.38998 8.73787L9.32465 8.66383L9.35981 8.7697ZM10.0582 10.1977C9.87506 9.8 9.83304 9.41611 9.93334 9.0581C9.9441 9.0198 9.96133 8.98848 9.97177 8.98848C9.98214 8.98848 10.0253 9.01211 10.0678 9.04093C10.1521 9.09832 10.3214 9.19496 10.7723 9.44326C11.335 9.75312 11.6558 9.99303 11.8739 10.2672C12.065 10.5073 12.1832 10.7807 12.2401 11.1141C12.2723 11.303 12.2534 11.7574 12.2055 11.9476C12.0542 12.5472 11.7026 13.0182 11.2011 13.2931C11.1277 13.3333 11.0617 13.3664 11.0545 13.3666C11.0474 13.3667 11.0742 13.298 11.114 13.2137C11.2827 12.8575 11.3019 12.511 11.1744 12.1254C11.0963 11.8893 10.9371 11.6011 10.6156 11.1141C10.2418 10.548 10.1501 10.3973 10.0582 10.1977ZM6.60877 11.5019C6.02907 11.597 5.39267 11.9068 4.88119 12.343L4.72892 12.4729L4.86274 12.4941C5.56109 12.6042 5.74914 12.7018 6.23355 13.2059C6.51232 13.4959 6.60646 13.5604 6.83768 13.6201C7.17729 13.7076 7.51204 13.5467 7.62687 13.2407C7.67817 13.104 7.67132 12.8776 7.61246 12.7639C7.47246 12.4932 7.06457 12.4057 6.86733 12.604C6.70304 12.7691 6.75091 13.018 6.95524 13.0607C7.00202 13.0706 7.00069 13.0685 6.94332 13.0423C6.8539 13.0014 6.81505 12.9448 6.81455 12.8547C6.81341 12.6434 7.05278 12.5248 7.27547 12.6263C7.43851 12.7006 7.50326 12.7977 7.50326 12.9679C7.50326 13.2301 7.28239 13.4276 7.02534 13.3953C6.88794 13.378 6.71991 13.2893 6.62981 13.1864C6.40309 12.9275 6.49141 12.5189 6.80795 12.3621C7.04893 12.2428 7.36925 12.2722 7.61765 12.4364C7.90304 12.6252 8.0244 12.7978 8.27021 13.3641C8.35027 13.5484 8.45325 13.756 8.49904 13.8253C8.73191 14.1774 9.01089 14.35 9.34694 14.35C9.53229 14.35 9.67171 14.3158 9.84713 14.2274C9.97747 14.1616 10.1622 14.0367 10.1489 14.0233C10.1451 14.0195 10.0911 14.0365 10.0288 14.061C9.66185 14.2056 9.28885 14.1956 9.07225 14.0354C8.93583 13.9346 8.8258 13.7338 8.76925 13.4826C8.75945 13.4391 8.72717 13.2471 8.69746 13.0559C8.62214 12.5712 8.54983 12.3533 8.3812 12.1033C8.20866 11.8475 7.87697 11.6328 7.50615 11.5369C7.27479 11.4771 6.8586 11.4608 6.60877 11.5019ZM5.79688 7.75439C5.84694 7.56763 6.00866 7.38952 6.17503 7.3379C6.28082 7.30511 6.49949 7.32605 6.60231 7.37883C6.80156 7.48117 6.94622 7.71423 6.91483 7.88248C6.87654 8.08762 6.54718 8.25176 6.1683 8.25445C5.97478 8.2558 5.90331 8.22954 5.82941 8.12989C5.78367 8.06815 5.76634 7.86832 5.79688 7.75439ZM6.55143 7.45197C6.6508 7.51326 6.67636 7.60388 6.61794 7.68772C6.57769 7.74549 6.4531 7.80037 6.36205 7.80037C6.22526 7.80037 6.07604 7.70225 6.07604 7.6124C6.07604 7.43186 6.3622 7.33521 6.55143 7.45197Z" fill="white" stroke="white" stroke-width="0.5" mask="url(#path-1-inside-1_2554_116381)"/>
</svg>
